<svg xmlns="http://www.w3.org/2000/svg">
    <defs>
        <symbol id="barometer" viewBox="0 0 24 24">
            <ellipse cx="12.0002" cy="13" rx="10.8" ry="10.8" fill="#494F68"/>
            <path d="M14.1665 14.1053C14.3406 13.7656 14.4334 13.3874 14.4334 12.9948C14.4334 11.6471 13.3427 10.5562 11.9948 10.5562C11.602 10.5562 11.224 10.649 10.8843 10.8231L8.28098 8.21982C7.98788 7.92673 7.51277 7.92673 7.21982 8.21982C6.92673 8.51277 6.92673 8.98788 7.21982 9.28098L9.8231 11.8843C9.649 12.224 9.55624 12.6022 9.55624 12.9948C9.55624 14.3425 10.6468 15.4334 11.9948 15.4334C12.3875 15.4334 12.7656 15.3406 13.1053 15.1665L13.7191 15.7802C14.012 16.0732 14.4873 16.0733 14.7802 15.7802C15.0733 15.4873 15.0733 15.0122 14.7802 14.7191L14.1665 14.1053ZM11.9948 13.9327C11.4765 13.9327 11.0569 13.5133 11.0569 12.9948C11.0569 12.4782 11.4756 12.0569 11.9948 12.0569C12.5131 12.0569 12.9327 12.4763 12.9327 12.9948C12.9327 13.5114 12.514 13.9327 11.9948 13.9327Z"
                  fill="white"/>
        </symbol>
        <symbol id="bookmark_use" viewBox="0 0 24 24">
            <path d="M5 4.50004C5 3.83699 5.24583 3.20109 5.68342 2.73224C6.121 2.2634 6.71449 2 7.33333 2H16.6667C17.2855 2 17.879 2.2634 18.3166 2.73224C18.7542 3.20109 19 3.83699 19 4.50004V21.3753C18.9999 21.4884 18.9713 21.5993 18.917 21.6963C18.8628 21.7932 18.785 21.8726 18.692 21.926C18.599 21.9794 18.4942 22.0047 18.3888 21.9993C18.2834 21.9939 18.1813 21.958 18.0935 21.8953L12 18.3765L5.9065 21.8953C5.81866 21.958 5.7166 21.9939 5.61121 21.9993C5.50581 22.0047 5.40102 21.9794 5.308 21.926C5.21498 21.8726 5.1372 21.7932 5.08297 21.6963C5.02873 21.5993 5.00005 21.4884 5 21.3753V4.50004ZM7.33333 3.25002C7.02391 3.25002 6.72717 3.38172 6.50838 3.61614C6.28958 3.85057 6.16667 4.16851 6.16667 4.50004V20.2078L11.6768 17.1052C11.7726 17.037 11.885 17.0006 12 17.0006C12.115 17.0006 12.2274 17.037 12.3232 17.1052L17.8333 20.2078V4.50004C17.8333 4.16851 17.7104 3.85057 17.4916 3.61614C17.2728 3.38172 16.9761 3.25002 16.6667 3.25002H7.33333Z"
                  fill="#8A91AB"/>
            <path d="M7.33333 3.25002C7.02391 3.25002 6.72717 3.38172 6.50838 3.61614C6.28958 3.85057 6.16667 4.16851 6.16667 4.50004V20.2078L11.6768 17.1052C11.7726 17.037 11.885 17.0006 12 17.0006C12.115 17.0006 12.2274 17.037 12.3232 17.1052L17.8333 20.2078V4.50004C17.8333 4.16851 17.7104 3.85057 17.4916 3.61614C17.2728 3.38172 16.9761 3.25002 16.6667 3.25002H7.33333Z"
                  fill="#8A91AB"/>
        </symbol>
        <symbol id="bookmark">
            <path d="M5 4.50004C5 3.83699 5.24583 3.20109 5.68342 2.73224C6.121 2.2634 6.71449 2 7.33333 2H16.6667C17.2855 2 17.879 2.2634 18.3166 2.73224C18.7542 3.20109 19 3.83699 19 4.50004V21.3753C18.9999 21.4884 18.9713 21.5993 18.917 21.6963C18.8628 21.7932 18.785 21.8726 18.692 21.926C18.599 21.9794 18.4942 22.0047 18.3888 21.9993C18.2834 21.9939 18.1813 21.958 18.0935 21.8953L12 18.3765L5.9065 21.8953C5.81866 21.958 5.7166 21.9939 5.61121 21.9993C5.50581 22.0047 5.40102 21.9794 5.308 21.926C5.21498 21.8726 5.1372 21.7932 5.08297 21.6963C5.02873 21.5993 5.00005 21.4884 5 21.3753V4.50004ZM7.33333 3.25002C7.02391 3.25002 6.72717 3.38172 6.50838 3.61614C6.28958 3.85057 6.16667 4.16851 6.16667 4.50004V20.2078L11.6768 17.1052C11.7726 17.037 11.885 17.0006 12 17.0006C12.115 17.0006 12.2274 17.037 12.3232 17.1052L17.8333 20.2078V4.50004C17.8333 4.16851 17.7104 3.85057 17.4916 3.61614C17.2728 3.38172 16.9761 3.25002 16.6667 3.25002H7.33333Z"
                  fill="#8A91AB"/>
        </symbol>
        <symbol id="back" viewBox="0 0 24 24">
            <path d="M15.5348 3.515L7.0498 12L15.5348 20.485L16.9498 19.071L9.8778 12L16.9498 4.929L15.5348 3.515Z"
                  fill="#8A91AB"/>
        </symbol>
        <symbol id="logo" viewBox="0 0 30 31">
            <g clip-path="url(#clip0_2059_594)">
                <circle cx="8.31673" cy="10.2704" r="5.34212" fill="url(#paint0_radial_2059_594)"/>
                <g opacity="0.67" filter="url(#filter0_f_2059_594)">
                    <path d="M19.6346 10.9885C23.2124 14.2174 31.6084 17.6413 28.3795 21.2191C25.1506 24.7968 6.69492 35.017 -0.989481 31.0666C-4.56725 27.8377 2.21591 17.4411 5.44482 13.8633C8.67372 10.2855 16.0568 7.75961 19.6346 10.9885Z" fill="url(#paint1_linear_2059_594)" fill-opacity="0.3"/>
                </g>
                <g filter="url(#filter1_ii_2059_594)">
                    <path fill-rule="evenodd" clip-rule="evenodd" d="M14.0975 24.9326V24.9329H7.07244C3.5758 24.9329 0.741211 22.0983 0.741211 18.6017C0.741211 15.105 3.5758 12.2704 7.07244 12.2704H7.41936C8.64661 12.2704 9.79655 12.6015 10.7847 13.1792C12.0694 9.37313 15.6688 6.63275 19.9083 6.63275H20.3853C25.4386 6.63275 29.5352 10.7293 29.5352 15.7827C29.5352 20.836 25.4386 24.9326 20.3853 24.9326H14.0975Z" fill="white"/>
                </g>
            </g>
            <defs>
                <filter id="filter0_f_2059_594" x="-39.8808" y="-28.3745" width="106.862" height="98.2113" filterUnits="userSpaceOnUse" color-interpolation-filters="sRGB">
                    <feFlood flood-opacity="0" result="BackgroundImageFix"/>
                    <feBlend mode="normal" in="SourceGraphic" in2="BackgroundImageFix" result="shape"/>
                    <feGaussianBlur stdDeviation="18.9384" result="effect1_foregroundBlur_2059_594"/>
                </filter>
                <filter id="filter1_ii_2059_594" x="-14.4095" y="-5.99288" width="50.6784" height="40.1846" filterUnits="userSpaceOnUse" color-interpolation-filters="sRGB">
                    <feFlood flood-opacity="0" result="BackgroundImageFix"/>
                    <feBlend mode="normal" in="SourceGraphic" in2="BackgroundImageFix" result="shape"/>
                    <feColorMatrix in="SourceAlpha" type="matrix" values="0 0 0 0 0 0 0 0 0 0 0 0 0 0 0 0 0 0 127 0" result="hardAlpha"/>
                    <feOffset dx="6.73367" dy="-12.6256"/>
                    <feGaussianBlur stdDeviation="12.6256"/>
                    <feComposite in2="hardAlpha" operator="arithmetic" k2="-1" k3="1"/>
                    <feColorMatrix type="matrix" values="0 0 0 0 0 0 0 0 0 0 0 0 0 0 0 0 0 0 0.2 0"/>
                    <feBlend mode="normal" in2="shape" result="effect1_innerShadow_2059_594"/>
                    <feColorMatrix in="SourceAlpha" type="matrix" values="0 0 0 0 0 0 0 0 0 0 0 0 0 0 0 0 0 0 127 0" result="hardAlpha"/>
                    <feOffset dx="-15.1508" dy="9.2588"/>
                    <feGaussianBlur stdDeviation="12.6256"/>
                    <feComposite in2="hardAlpha" operator="arithmetic" k2="-1" k3="1"/>
                    <feColorMatrix type="matrix" values="0 0 0 0 1 0 0 0 0 1 0 0 0 0 1 0 0 0 1 0"/>
                    <feBlend mode="normal" in2="effect1_innerShadow_2059_594" result="effect2_innerShadow_2059_594"/>
                </filter>
                <radialGradient id="paint0_radial_2059_594" cx="0" cy="0" r="1" gradientUnits="userSpaceOnUse" gradientTransform="translate(10.4423 7.35844) rotate(132.136) scale(11.1308)">
                    <stop stop-color="#FFF72C"/>
                    <stop offset="1" stop-color="#DF7800"/>
                </radialGradient>
                <linearGradient id="paint1_linear_2059_594" x1="2.81013" y1="32.6486" x2="23.5919" y2="9.32603" gradientUnits="userSpaceOnUse">
                    <stop stop-color="#254659"/>
                    <stop offset="1" stop-color="#023553"/>
                </linearGradient>
                <clipPath id="clip0_2059_594">
                    <rect width="30" height="30" fill="white" transform="translate(0 0.5)"/>
                </clipPath>
            </defs>
        </symbol>
        <symbol id="clear" viewBox="0 0 200 200">
            <g filter="url(#filter0_d_1506_805)">
                <path d="M99.5899 151.165C128.074 151.165 151.165 128.074 151.165 99.5899C151.165 71.1056 128.074 48.0144 99.5899 48.0144C71.1056 48.0144 48.0144 71.1056 48.0144 99.5899C48.0144 128.074 71.1056 151.165 99.5899 151.165Z"
                      fill="#FA9E42"/>
            </g>
            <path fill-rule="evenodd" clip-rule="evenodd"
                  d="M99.0186 30.0023C99.2089 30.0008 99.3993 30 99.5899 30C99.7805 30 99.971 30.0008 100.161 30.0023C102.923 30.0245 105.143 32.2811 105.121 35.0424C105.099 37.8037 102.842 40.0242 100.081 40.002C99.9173 40.0007 99.7537 40 99.5899 40C99.4262 40 99.2626 40.0007 99.0992 40.002C96.3378 40.0242 94.0813 37.8037 94.0591 35.0424C94.0368 32.2811 96.2573 30.0245 99.0186 30.0023ZM127.083 40.9127C128.447 38.5112 131.499 37.6697 133.9 39.033C134.23 39.2205 134.559 39.4106 134.886 39.6033C137.264 41.0057 138.056 44.071 136.653 46.4498C135.251 48.8286 132.186 49.62 129.807 48.2176C129.527 48.0526 129.246 47.8898 128.963 47.7293C126.562 46.366 125.72 43.3141 127.083 40.9127ZM72.0965 40.9127C73.4598 43.3141 72.6183 46.366 70.2168 47.7293C69.9341 47.8898 69.6528 48.0526 69.373 48.2176C66.9942 49.62 63.9289 48.8286 62.5265 46.4498C61.124 44.071 61.9155 41.0057 64.2942 39.6033C64.6211 39.4106 64.9496 39.2205 65.2799 39.033C67.6813 37.6697 70.7332 38.5112 72.0965 40.9127ZM152.73 62.5265C155.109 61.124 158.174 61.9155 159.577 64.2942C159.769 64.6211 159.959 64.9496 160.147 65.2799C161.51 67.6813 160.669 70.7332 158.267 72.0965C155.866 73.4598 152.814 72.6183 151.451 70.2168C151.29 69.9341 151.127 69.6528 150.962 69.373C149.56 66.9942 150.351 63.9289 152.73 62.5265ZM46.4498 62.5265C48.8286 63.9289 49.62 66.9942 48.2176 69.373C48.0526 69.6528 47.8898 69.9341 47.7293 70.2169C46.366 72.6183 43.3141 73.4598 40.9127 72.0965C38.5112 70.7332 37.6697 67.6813 39.033 65.2799C39.2205 64.9496 39.4106 64.6211 39.6033 64.2943C41.0057 61.9155 44.071 61.124 46.4498 62.5265ZM164.137 94.0591C166.899 94.0368 169.155 96.2573 169.178 99.0186C169.179 99.2089 169.18 99.3993 169.18 99.5899C169.18 99.7805 169.179 99.971 169.178 100.161C169.155 102.923 166.899 105.143 164.137 105.121C161.376 105.099 159.156 102.842 159.178 100.081C159.179 99.9173 159.18 99.7537 159.18 99.5899C159.18 99.4262 159.179 99.2626 159.178 99.0992C159.156 96.3378 161.376 94.0813 164.137 94.0591ZM35.0424 94.0591C37.8037 94.0813 40.0242 96.3378 40.002 99.0992C40.0007 99.2626 40 99.4262 40 99.5899C40 99.7537 40.0007 99.9173 40.002 100.081C40.0242 102.842 37.8037 105.099 35.0424 105.121C32.2811 105.143 30.0245 102.923 30.0023 100.161C30.0008 99.971 30 99.7805 30 99.5899C30 99.3993 30.0008 99.2089 30.0023 99.0186C30.0245 96.2573 32.2811 94.0368 35.0424 94.0591ZM158.267 127.083C160.669 128.447 161.51 131.499 160.147 133.9C159.959 134.23 159.769 134.559 159.577 134.886C158.174 137.264 155.109 138.056 152.73 136.653C150.351 135.251 149.56 132.186 150.962 129.807C151.127 129.527 151.29 129.246 151.451 128.963C152.814 126.562 155.866 125.72 158.267 127.083ZM40.9127 127.083C43.3141 125.72 46.366 126.562 47.7293 128.963C47.8898 129.246 48.0526 129.527 48.2176 129.807C49.62 132.186 48.8286 135.251 46.4498 136.653C44.071 138.056 41.0057 137.264 39.6033 134.886C39.4106 134.559 39.2205 134.23 39.033 133.9C37.6697 131.499 38.5112 128.447 40.9127 127.083ZM136.653 152.73C138.056 155.109 137.264 158.174 134.886 159.577C134.559 159.769 134.23 159.959 133.9 160.147C131.499 161.51 128.447 160.669 127.083 158.267C125.72 155.866 126.562 152.814 128.963 151.451C129.246 151.29 129.527 151.127 129.807 150.962C132.186 149.56 135.251 150.351 136.653 152.73ZM62.5265 152.73C63.9289 150.351 66.9942 149.56 69.373 150.962C69.6528 151.127 69.9341 151.29 70.2169 151.451C72.6183 152.814 73.4598 155.866 72.0965 158.267C70.7332 160.669 67.6813 161.51 65.2799 160.147C64.9496 159.959 64.6211 159.769 64.2943 159.577C61.9155 158.174 61.124 155.109 62.5265 152.73ZM94.0591 164.137C94.0813 161.376 96.3378 159.156 99.0992 159.178C99.2626 159.179 99.4262 159.18 99.5899 159.18C99.7537 159.18 99.9173 159.179 100.081 159.178C102.842 159.156 105.099 161.376 105.121 164.137C105.143 166.899 102.923 169.155 100.161 169.178C99.971 169.179 99.7805 169.18 99.5899 169.18C99.4976 169.18 99.4054 169.18 99.3131 169.179C99.2149 169.179 99.1168 169.178 99.0186 169.178C96.2573 169.155 94.0368 166.899 94.0591 164.137Z"
                  fill="#FA9E42"/>
            <g filter="url(#filter1_f_1506_805)">
                <path d="M96.0023 93.1149C114.044 83.532 124.25 67.4419 118.798 57.1767C113.346 46.9116 94.2998 46.3585 76.2578 55.9414C58.2158 65.5243 48.0098 81.6143 53.4621 91.8795C58.9144 102.145 77.9603 102.698 96.0023 93.1149Z"
                      fill="#F8E36F"/>
            </g>
            <defs>
                <filter id="filter0_d_1506_805" x="28.0144" y="20.0144" width="163.151" height="163.151"
                        filterUnits="userSpaceOnUse" color-interpolation-filters="sRGB">
                    <feFlood flood-opacity="0" result="BackgroundImageFix"/>
                    <feColorMatrix in="SourceAlpha" type="matrix" values="0 0 0 0 0 0 0 0 0 0 0 0 0 0 0 0 0 0 127 0"
                                   result="hardAlpha"/>
                    <feOffset dx="10" dy="2"/>
                    <feGaussianBlur stdDeviation="15"/>
                    <feColorMatrix type="matrix" values="0 0 0 0 0 0 0 0 0 0 0 0 0 0 0 0 0 0 0.25 0"/>
                    <feBlend mode="normal" in2="BackgroundImageFix" result="effect1_dropShadow_1506_805"/>
                    <feBlend mode="normal" in="SourceGraphic" in2="effect1_dropShadow_1506_805" result="shape"/>
                </filter>
                <filter id="filter1_f_1506_805" x="31.994" y="29.1009" width="108.272" height="90.8544"
                        filterUnits="userSpaceOnUse" color-interpolation-filters="sRGB">
                    <feFlood flood-opacity="0" result="BackgroundImageFix"/>
                    <feBlend mode="normal" in="SourceGraphic" in2="BackgroundImageFix" result="shape"/>
                    <feGaussianBlur stdDeviation="10" result="effect1_foregroundBlur_1506_805"/>
                </filter>
            </defs>
        </symbol>
        <symbol id="clouds" viewBox="0 0 200 200">
            <g filter="url(#filter0_d_1502_710)">
                <path d="M146.244 145.694H44.2972C34.4075 145.686 24.9041 141.853 17.7765 134.997C10.6489 128.141 6.44973 118.794 6.05803 108.912C5.66633 99.0303 9.1125 89.3799 15.6751 81.9814C22.2377 74.5828 31.4079 70.0097 41.2659 69.2194C42.6717 59.2927 47.1544 50.0565 54.0832 42.8102C61.012 35.564 70.0383 30.6723 79.8921 28.8235C89.746 26.9747 99.9315 28.2618 109.016 32.5037C118.1 36.7455 125.626 43.7287 130.534 52.4707C139.537 49.3543 149.264 48.9901 158.474 51.4246C167.685 53.8591 175.961 58.9819 182.248 66.1397C188.535 73.2974 192.548 82.1656 193.774 91.6132C195 101.061 193.384 110.659 189.133 119.185C186.638 126.888 181.767 133.603 175.218 138.365C168.67 143.128 160.781 145.694 152.684 145.694H146.244Z" fill="url(#paint0_linear_1502_710)"/>
                <path d="M152.684 145.161C156.796 145.161 160.838 144.504 164.699 143.21C168.433 141.958 171.938 140.131 175.117 137.78C178.26 135.455 181.015 132.671 183.305 129.504C185.624 126.298 187.414 122.771 188.626 119.021L188.639 118.983L188.657 118.946C190.268 115.726 191.509 112.319 192.345 108.82C193.206 105.22 193.642 101.5 193.642 97.7639C193.642 94.5477 193.318 91.3337 192.679 88.2112C192.056 85.1683 191.127 82.1752 189.917 79.3151C188.73 76.5067 187.259 73.798 185.547 71.2642C183.852 68.7543 181.905 66.3942 179.76 64.2492C177.615 62.1042 175.254 60.1569 172.745 58.4613C170.211 56.7494 167.502 55.2792 164.694 54.0914C161.834 52.8816 158.84 51.9525 155.798 51.3298C152.675 50.6908 149.461 50.3668 146.245 50.3668C140.92 50.3668 135.692 51.2433 130.709 52.9717L130.288 53.1175L130.07 52.7296C126.014 45.5179 120.115 39.4614 113.009 35.2149C109.416 33.0674 105.555 31.4078 101.535 30.2824C97.3868 29.1212 93.0785 28.5325 88.7293 28.5325C82.8793 28.5325 77.1689 29.5854 71.7566 31.6618C66.5279 33.6678 61.7315 36.5654 57.5004 40.2742C53.2937 43.9617 49.8027 48.3126 47.1243 53.206C44.3801 58.2196 42.5865 63.6315 41.7934 69.2913L41.7341 69.7149L41.3076 69.7483C36.5369 70.1217 31.9469 71.3778 27.6651 73.4815C23.5046 75.5257 19.7894 78.2906 16.6228 81.6994C10.116 88.7038 6.53255 97.8298 6.53255 107.396C6.53255 112.495 7.53096 117.44 9.50007 122.096C10.4465 124.333 11.6179 126.492 12.9819 128.51C14.3329 130.51 15.8845 132.391 17.5936 134.1C19.3026 135.809 21.1832 137.361 23.183 138.712C25.2019 140.075 27.3601 141.247 29.5977 142.193C34.2531 144.162 39.1988 145.161 44.2971 145.161H146.245H152.684ZM152.684 145.693H146.245H44.2971C23.1463 145.693 6 128.547 6 107.396C6 87.2653 21.5316 70.7621 41.266 69.2173C44.5303 45.9242 64.5363 28 88.7293 28C106.677 28 122.321 37.8645 130.534 52.4686C135.456 50.7616 140.742 49.8343 146.245 49.8343C172.716 49.8343 194.174 71.2933 194.174 97.7639C194.174 105.463 192.359 112.739 189.133 119.185C184.162 134.568 169.722 145.693 152.684 145.693Z" fill="white" fill-opacity="0.5"/>
            </g>
            <defs>
                <filter id="filter0_d_1502_710" x="-14" y="-1.52588e-05" width="248.174" height="177.694" filterUnits="userSpaceOnUse" color-interpolation-filters="sRGB">
                    <feFlood flood-opacity="0" result="BackgroundImageFix"/>
                    <feColorMatrix in="SourceAlpha" type="matrix" values="0 0 0 0 0 0 0 0 0 0 0 0 0 0 0 0 0 0 127 0" result="hardAlpha"/>
                    <feOffset dx="10" dy="2"/>
                    <feGaussianBlur stdDeviation="15"/>
                    <feColorMatrix type="matrix" values="0 0 0 0 0 0 0 0 0 0 0 0 0 0 0 0 0 0 0.25 0"/>
                    <feBlend mode="normal" in2="BackgroundImageFix" result="effect1_dropShadow_1502_710"/>
                    <feBlend mode="normal" in="SourceGraphic" in2="effect1_dropShadow_1502_710" result="shape"/>
                </filter>
                <linearGradient id="paint0_linear_1502_710" x1="100.1" y1="28.0014" x2="154.763" y2="160.161" gradientUnits="userSpaceOnUse">
                    <stop stop-color="white" stop-opacity="0.604"/>
                    <stop offset="1" stop-color="white" stop-opacity="0.2"/>
                </linearGradient>
            </defs>
        </symbol>
        <symbol id="drizzle" viewBox="0 0 200 200">
            <g clip-path="url(#clip0_1506_807)">
                <path d="M57.6457 128.421C58.027 128.426 61.8965 135.583 61.8965 138.364C61.8965 141.145 59.9931 143.4 57.6457 143.4C55.2982 143.4 53.3948 141.145 53.3948 138.364C53.3948 135.583 57.2643 128.416 57.6457 128.421Z"
                      fill="#42A0F0"/>
                <path d="M55.1189 139.402C55.7138 139.197 56.2138 138.399 56.2357 137.62C56.2575 136.841 55.7929 136.376 55.198 136.58C54.603 136.785 54.103 137.583 54.0812 138.362C54.0593 139.141 54.5239 139.607 55.1189 139.402Z"
                      fill="white"/>
                <path d="M87.1442 128.421C87.5255 128.426 91.395 135.583 91.395 138.364C91.395 141.145 89.4917 143.4 87.1442 143.4C84.7967 143.4 82.8934 141.145 82.8934 138.364C82.8934 135.583 86.7629 128.416 87.1442 128.421Z"
                      fill="#42A0F0"/>
                <path d="M84.6174 139.402C85.2124 139.197 85.7124 138.399 85.7342 137.62C85.756 136.841 85.2914 136.376 84.6965 136.58C84.1016 136.785 83.6016 137.583 83.5797 138.362C83.5579 139.141 84.0225 139.607 84.6174 139.402Z"
                      fill="white"/>
                <path d="M118.792 128.421C119.173 128.426 123.043 135.583 123.043 138.364C123.043 141.145 121.14 143.4 118.792 143.4C116.445 143.4 114.541 141.145 114.541 138.364C114.541 135.583 118.411 128.416 118.792 128.421Z"
                      fill="#42A0F0"/>
                <path d="M116.265 139.402C116.86 139.197 117.36 138.399 117.382 137.62C117.404 136.841 116.939 136.376 116.344 136.58C115.75 136.785 115.25 137.583 115.228 138.362C115.206 139.141 115.67 139.607 116.265 139.402Z"
                      fill="white"/>
                <path d="M148.022 127.57C148.403 127.575 152.273 134.732 152.273 137.513C152.273 140.294 150.37 142.549 148.022 142.549C145.675 142.549 143.771 140.294 143.771 137.513C143.771 134.732 147.641 127.565 148.022 127.57Z"
                      fill="#42A0F0"/>
                <path d="M145.495 138.551C146.09 138.346 146.59 137.548 146.612 136.769C146.634 135.99 146.169 135.525 145.575 135.729C144.98 135.934 144.48 136.732 144.458 137.511C144.436 138.29 144.901 138.756 145.495 138.551Z"
                      fill="white"/>
                <path d="M102.038 147.427C102.419 147.432 106.288 154.589 106.288 157.37C106.288 160.151 104.385 162.405 102.038 162.405C99.69 162.405 97.7867 160.151 97.7867 157.37C97.7867 154.589 101.656 147.422 102.038 147.427Z"
                      fill="#42A0F0"/>
                <path d="M99.5107 158.407C100.106 158.202 100.606 157.405 100.627 156.626C100.649 155.847 100.185 155.381 99.5898 155.586C98.9949 155.791 98.4949 156.588 98.473 157.368C98.4512 158.147 98.9158 158.612 99.5107 158.407Z"
                      fill="white"/>
                <path d="M133.685 147.427C134.066 147.432 137.936 154.589 137.936 157.37C137.936 160.151 136.032 162.405 133.685 162.405C131.337 162.405 129.434 160.151 129.434 157.37C129.434 154.589 133.304 147.422 133.685 147.427Z"
                      fill="#42A0F0"/>
                <path d="M131.158 158.407C131.753 158.202 132.253 157.405 132.275 156.626C132.297 155.847 131.832 155.381 131.237 155.586C130.642 155.791 130.142 156.588 130.12 157.368C130.099 158.147 130.563 158.612 131.158 158.407Z"
                      fill="white"/>
                <path d="M167.194 147.427C167.575 147.432 171.445 154.589 171.445 157.37C171.445 160.151 169.541 162.405 167.194 162.405C164.847 162.405 162.943 160.151 162.943 157.37C162.943 154.589 166.813 147.422 167.194 147.427Z"
                      fill="#42A0F0"/>
                <path d="M164.667 158.407C165.262 158.202 165.762 157.405 165.784 156.626C165.806 155.847 165.341 155.381 164.746 155.586C164.151 155.791 163.651 156.588 163.63 157.368C163.608 158.147 164.072 158.612 164.667 158.407Z"
                      fill="white"/>
                <path d="M70.3902 148.278C70.7715 148.283 74.641 155.44 74.641 158.221C74.641 161.002 72.7376 163.256 70.3902 163.256C68.0427 163.256 66.1393 161.002 66.1393 158.221C66.1393 155.44 70.0089 148.273 70.3902 148.278Z"
                      fill="#42A0F0"/>
                <path d="M67.8634 159.258C68.4583 159.054 68.9583 158.256 68.9802 157.477C69.002 156.698 68.5374 156.232 67.9425 156.437C67.3475 156.642 66.8475 157.44 66.8257 158.219C66.8039 158.998 67.2684 159.463 67.8634 159.258Z"
                      fill="white"/>
                <path d="M40.604 147.427C40.9853 147.432 44.8548 154.589 44.8548 157.37C44.8548 160.151 42.9515 162.405 40.604 162.405C38.2565 162.405 36.3532 160.151 36.3532 157.37C36.3532 154.589 40.2227 147.422 40.604 147.427Z"
                      fill="#42A0F0"/>
                <path d="M38.0773 158.407C38.6722 158.202 39.1722 157.405 39.194 156.626C39.2159 155.847 38.7513 155.381 38.1563 155.586C37.5614 155.791 37.0614 156.588 37.0396 157.368C37.0177 158.147 37.4823 158.612 38.0773 158.407Z"
                      fill="white"/>
                <path d="M57.6457 162.461C58.027 162.466 61.8965 169.623 61.8965 172.404C61.8965 175.185 59.9931 177.44 57.6457 177.44C55.2982 177.44 53.3948 175.185 53.3948 172.404C53.3948 169.623 57.2643 162.456 57.6457 162.461Z"
                      fill="#42A0F0"/>
                <path d="M55.1189 173.442C55.7138 173.237 56.2138 172.439 56.2357 171.66C56.2575 170.881 55.7929 170.415 55.198 170.62C54.603 170.825 54.103 171.623 54.0812 172.402C54.0593 173.181 54.5239 173.646 55.1189 173.442Z"
                      fill="white"/>
                <path d="M87.1442 162.461C87.5255 162.466 91.395 169.623 91.395 172.404C91.395 175.185 89.4917 177.44 87.1442 177.44C84.7967 177.44 82.8934 175.185 82.8934 172.404C82.8934 169.623 86.7629 162.456 87.1442 162.461Z"
                      fill="#42A0F0"/>
                <path d="M84.6174 173.442C85.2124 173.237 85.7123 172.439 85.7342 171.66C85.756 170.881 85.2914 170.415 84.6965 170.62C84.1016 170.825 83.6016 171.623 83.5797 172.402C83.5579 173.181 84.0225 173.646 84.6174 173.442Z"
                      fill="white"/>
                <path d="M118.792 162.461C119.173 162.466 123.043 169.623 123.043 172.404C123.043 175.185 121.14 177.44 118.792 177.44C116.445 177.44 114.541 175.185 114.541 172.404C114.541 169.623 118.411 162.456 118.792 162.461Z"
                      fill="#42A0F0"/>
                <path d="M116.265 173.442C116.86 173.237 117.36 172.439 117.382 171.66C117.404 170.881 116.939 170.415 116.344 170.62C115.75 170.825 115.25 171.623 115.228 172.402C115.206 173.181 115.67 173.646 116.265 173.442Z"
                      fill="white"/>
                <path d="M148.022 162.461C148.403 162.466 152.273 169.623 152.273 172.404C152.273 175.185 150.37 177.44 148.022 177.44C145.675 177.44 143.771 175.185 143.771 172.404C143.771 169.623 147.641 162.456 148.022 162.461Z"
                      fill="#42A0F0"/>
                <path d="M145.495 173.442C146.09 173.237 146.59 172.439 146.612 171.66C146.634 170.881 146.169 170.415 145.575 170.62C144.98 170.825 144.48 171.623 144.458 172.402C144.436 173.181 144.901 173.646 145.495 173.442Z"
                      fill="white"/>
                <g filter="url(#filter0_d_1506_807)">
                    <path d="M146.245 140.694H44.2979C34.4083 140.686 24.9049 136.853 17.7773 129.997C10.6497 123.142 6.45047 113.794 6.05877 103.912C5.66707 94.0303 9.11323 84.38 15.6758 76.9814C22.2384 69.5829 31.4086 65.0098 41.2667 64.2195C42.6725 54.2927 47.1551 45.0565 54.0839 37.8103C61.0127 30.564 70.039 25.6724 79.8928 23.8236C89.7467 21.9748 99.9322 23.2619 109.016 27.5037C118.101 31.7456 125.626 38.7287 130.535 47.4708C139.538 44.3544 149.265 43.9902 158.475 46.4247C167.686 48.8592 175.962 53.982 182.249 61.1397C188.536 68.2975 192.549 77.1657 193.775 86.6132C195.001 96.0608 193.385 105.659 189.134 114.185C186.639 121.888 181.768 128.603 175.219 133.365C168.671 138.128 160.782 140.694 152.685 140.694H146.245Z"
                          fill="url(#paint0_linear_1506_807)"/>
                    <path d="M152.684 140.161C156.796 140.161 160.838 139.504 164.699 138.21C168.433 136.958 171.938 135.131 175.117 132.78C178.26 130.455 181.015 127.671 183.305 124.504C185.624 121.298 187.414 117.771 188.626 114.021L188.639 113.983L188.657 113.946C190.268 110.726 191.509 107.319 192.345 103.82C193.206 100.22 193.642 96.5 193.642 92.7639C193.642 89.5477 193.318 86.3338 192.679 83.2112C192.056 80.1683 191.127 77.1752 189.917 74.3151C188.73 71.5067 187.259 68.798 185.547 66.2642C183.852 63.7544 181.905 61.3942 179.76 59.2492C177.615 57.1043 175.254 55.1569 172.745 53.4613C170.211 51.7495 167.502 50.2792 164.694 49.0914C161.834 47.8816 158.84 46.9525 155.798 46.3298C152.675 45.6908 149.461 45.3669 146.245 45.3669C140.92 45.3669 135.692 46.2433 130.709 47.9717L130.288 48.1176L130.07 47.7296C126.014 40.5179 120.115 34.4614 113.009 30.2149C109.416 28.0674 105.555 26.4078 101.535 25.2824C97.3868 24.1213 93.0785 23.5326 88.7293 23.5326C82.8793 23.5326 77.1689 24.5854 71.7566 26.6618C66.5279 28.6678 61.7315 31.5654 57.5004 35.2742C53.2937 38.9617 49.8027 43.3126 47.1243 48.2061C44.3801 53.2197 42.5865 58.6315 41.7934 64.2913L41.7341 64.7149L41.3076 64.7483C36.5369 65.1217 31.9469 66.3778 27.6651 68.4815C23.5046 70.5257 19.7894 73.2906 16.6228 76.6994C10.116 83.7038 6.53255 92.8298 6.53255 102.396C6.53255 107.495 7.53096 112.44 9.50007 117.096C10.4465 119.333 11.6179 121.492 12.9819 123.51C14.3329 125.51 15.8845 127.391 17.5936 129.1C19.3026 130.809 21.1832 132.361 23.183 133.712C25.2019 135.076 27.3601 136.247 29.5977 137.193C34.2531 139.162 39.1988 140.161 44.2971 140.161H146.245H152.684ZM152.684 140.693H146.245H44.2971C23.1463 140.693 6 123.547 6 102.396C6 82.2653 21.5316 65.7621 41.266 64.2174C44.5303 40.9243 64.5363 23 88.7293 23C106.677 23 122.321 32.8646 130.534 47.4686C135.456 45.7616 140.742 44.8343 146.245 44.8343C172.716 44.8343 194.174 66.2933 194.174 92.7639C194.174 100.463 192.359 107.739 189.133 114.185C184.162 129.568 169.722 140.693 152.684 140.693Z"
                          fill="white" fill-opacity="0.5"/>
                </g>
            </g>
            <defs>
                <filter id="filter0_d_1506_807" x="-14" y="-5" width="248.174" height="177.694"
                        filterUnits="userSpaceOnUse" color-interpolation-filters="sRGB">
                    <feFlood flood-opacity="0" result="BackgroundImageFix"/>
                    <feColorMatrix in="SourceAlpha" type="matrix" values="0 0 0 0 0 0 0 0 0 0 0 0 0 0 0 0 0 0 127 0"
                                   result="hardAlpha"/>
                    <feOffset dx="10" dy="2"/>
                    <feGaussianBlur stdDeviation="15"/>
                    <feColorMatrix type="matrix" values="0 0 0 0 0 0 0 0 0 0 0 0 0 0 0 0 0 0 0.25 0"/>
                    <feBlend mode="normal" in2="BackgroundImageFix" result="effect1_dropShadow_1506_807"/>
                    <feBlend mode="normal" in="SourceGraphic" in2="effect1_dropShadow_1506_807" result="shape"/>
                </filter>
                <linearGradient id="paint0_linear_1506_807" x1="100.101" y1="23.0014" x2="154.764" y2="155.161"
                                gradientUnits="userSpaceOnUse">
                    <stop stop-color="white" stop-opacity="0.604"/>
                    <stop offset="1" stop-color="white" stop-opacity="0.2"/>
                </linearGradient>
                <clipPath id="clip0_1506_807">
                    <rect width="200" height="200" fill="white"/>
                </clipPath>
            </defs>
        </symbol>
        <symbol id="dust" viewBox="0 0 200 200">
            <g filter="url(#filter0_d_1506_813)">
                <circle cx="43" cy="47" r="5" fill="#BBB185"/>
                <circle cx="43" cy="89" r="5" fill="#BBB185"/>
                <circle cx="43" cy="131" r="5" fill="#BBB185"/>
                <circle cx="56" cy="68" r="5" fill="#BBB185"/>
                <circle cx="56" cy="110" r="5" fill="#BBB185"/>
                <circle cx="56" cy="152" r="5" fill="#BBB185"/>
                <circle cx="68" cy="47" r="5" fill="#BBB185"/>
                <circle cx="68" cy="89" r="5" fill="#BBB185"/>
                <circle cx="68" cy="131" r="5" fill="#BBB185"/>
                <circle cx="81" cy="68" r="5" fill="#BBB185"/>
                <circle cx="81" cy="110" r="5" fill="#BBB185"/>
                <circle cx="81" cy="152" r="5" fill="#BBB185"/>
                <circle cx="93" cy="47" r="5" fill="#BBB185"/>
                <circle cx="93" cy="89" r="5" fill="#BBB185"/>
                <circle cx="93" cy="131" r="5" fill="#BBB185"/>
                <circle cx="106" cy="68" r="5" fill="#BBB185"/>
                <circle cx="106" cy="110" r="5" fill="#BBB185"/>
                <circle cx="106" cy="152" r="5" fill="#BBB185"/>
                <circle cx="118" cy="47" r="5" fill="#BBB185"/>
                <circle cx="118" cy="89" r="5" fill="#BBB185"/>
                <circle cx="118" cy="131" r="5" fill="#BBB185"/>
                <circle cx="131" cy="68" r="5" fill="#BBB185"/>
                <circle cx="131" cy="110" r="5" fill="#BBB185"/>
                <circle cx="131" cy="152" r="5" fill="#BBB185"/>
                <circle cx="143" cy="47" r="5" fill="#BBB185"/>
                <circle cx="143" cy="89" r="5" fill="#BBB185"/>
                <circle cx="143" cy="131" r="5" fill="#BBB185"/>
                <circle cx="156" cy="68" r="5" fill="#BBB185"/>
                <circle cx="156" cy="110" r="5" fill="#BBB185"/>
                <circle cx="156" cy="152" r="5" fill="#BBB185"/>
            </g>
            <defs>
                <filter id="filter0_d_1506_813" x="27" y="29" width="153" height="145" filterUnits="userSpaceOnUse"
                        color-interpolation-filters="sRGB">
                    <feFlood flood-opacity="0" result="BackgroundImageFix"/>
                    <feColorMatrix in="SourceAlpha" type="matrix" values="0 0 0 0 0 0 0 0 0 0 0 0 0 0 0 0 0 0 127 0"
                                   result="hardAlpha"/>
                    <feOffset dx="4" dy="2"/>
                    <feGaussianBlur stdDeviation="7.5"/>
                    <feComposite in2="hardAlpha" operator="out"/>
                    <feColorMatrix type="matrix" values="0 0 0 0 0.854167 0 0 0 0 0.854167 0 0 0 0 0.854167 0 0 0 1 0"/>
                    <feBlend mode="normal" in2="BackgroundImageFix" result="effect1_dropShadow_1506_813"/>
                    <feBlend mode="normal" in="SourceGraphic" in2="effect1_dropShadow_1506_813" result="shape"/>
                </filter>
            </defs>
        </symbol>
        <symbol id="mist" viewBox="0 0 200 200">
            <g filter="url(#filter0_d_1506_812)">
                <path fill-rule="evenodd" clip-rule="evenodd"
                      d="M98.555 91.9128C96.3208 92.7777 94.4382 93.8403 93.3834 94.5848C91.1274 96.1773 88.0076 95.6394 86.4151 93.3834C84.8227 91.1274 85.3606 88.0076 87.6166 86.4152C89.3951 85.1597 92.0125 83.7223 94.945 82.5872C97.8576 81.4597 101.414 80.5 105 80.5C109.406 80.5 112.333 82.3529 114.253 83.5686C114.36 83.6366 114.465 83.7026 114.566 83.7662C116.358 84.8919 117.46 85.5 119.5 85.5C121.754 85.5 123.608 84.731 126.014 83.5279C126.216 83.4266 126.433 83.3157 126.663 83.1981C128.753 82.1278 131.933 80.5 135.5 80.5C139.131 80.5 142.431 82.1715 144.593 83.2665C144.774 83.3581 144.947 83.4457 145.111 83.5279C147.691 84.818 149.33 85.5 151 85.5C152.224 85.5 154.18 84.986 156.289 84.0526C157.279 83.6148 158.174 83.1413 158.877 82.7134C159.227 82.5001 159.506 82.3128 159.71 82.1627C159.896 82.0265 159.972 81.9566 159.972 81.9569C159.972 81.9569 159.972 81.9573 159.971 81.9581C161.924 80.0118 165.085 80.014 167.036 81.9645C168.988 83.9171 168.988 87.0829 167.036 89.0355C165.544 90.5268 162.869 92.0766 160.336 93.1974C157.737 94.3474 154.276 95.5 151 95.5C146.694 95.5 143.099 93.7022 140.68 92.4924L140.639 92.4721C137.769 91.0372 136.565 90.5 135.5 90.5C134.459 90.5 133.441 90.9947 130.486 92.4721C127.892 93.769 124.246 95.5 119.5 95.5C114.54 95.5 111.434 93.6081 109.246 92.2338C107.177 90.9341 106.43 90.5 105 90.5C103.086 90.5 100.809 91.0403 98.555 91.9128Z"
                      fill="white"/>
                <path fill-rule="evenodd" clip-rule="evenodd"
                      d="M88.055 137.913C85.8208 138.778 83.9382 139.84 82.8834 140.585C80.6274 142.177 77.5076 141.639 75.9151 139.383C74.3227 137.127 74.8606 134.008 77.1166 132.415C78.8951 131.16 81.5125 129.722 84.445 128.587C87.3576 127.46 90.9144 126.5 94.5 126.5C98.9058 126.5 101.833 128.353 103.753 129.569C103.86 129.637 103.965 129.703 104.066 129.766C105.858 130.892 106.96 131.5 109 131.5C111.254 131.5 113.108 130.731 115.514 129.528C115.716 129.427 115.933 129.316 116.163 129.198C118.253 128.128 121.433 126.5 125 126.5C128.631 126.5 131.931 128.172 134.093 129.267C134.274 129.358 134.447 129.446 134.611 129.528C137.191 130.818 138.83 131.5 140.5 131.5C141.724 131.5 143.68 130.986 145.789 130.053C146.779 129.615 147.674 129.141 148.377 128.713C148.727 128.5 149.006 128.313 149.21 128.163C149.396 128.027 149.472 127.957 149.472 127.957C149.472 127.957 149.472 127.957 149.471 127.958C151.424 126.012 154.585 126.014 156.536 127.964C158.488 129.917 158.488 133.083 156.536 135.036C155.044 136.527 152.369 138.077 149.836 139.197C147.237 140.347 143.776 141.5 140.5 141.5C136.194 141.5 132.599 139.702 130.18 138.492L130.139 138.472C127.269 137.037 126.065 136.5 125 136.5C123.959 136.5 122.941 136.995 119.986 138.472C117.392 139.769 113.746 141.5 109 141.5C104.04 141.5 100.934 139.608 98.7461 138.234C96.6773 136.934 95.9305 136.5 94.5 136.5C92.5856 136.5 90.309 137.04 88.055 137.913Z"
                      fill="white"/>
                <path fill-rule="evenodd" clip-rule="evenodd"
                      d="M144.129 58.1001C146.283 59.8283 146.628 62.9752 144.9 65.1291C143.368 67.0378 140.467 69.1655 137.587 70.7533C134.705 72.3429 130.761 74 126.959 74C122.016 74 117.942 71.4605 115.287 69.8052L115.188 69.7435C115.074 69.6729 114.963 69.6036 114.855 69.5357C113.516 68.7005 112.509 68.0723 111.529 67.6025C110.511 67.1146 109.913 67 109.548 67C109.201 67 108.651 67.104 107.683 67.5802C106.826 68.0017 105.978 68.5338 104.836 69.2504C104.588 69.4058 104.327 69.5699 104.048 69.7435C101.196 71.521 97.0452 74 91.5753 74C85.8432 74 82.3196 71.2824 79.9625 69.4368C77.5415 67.541 76.7354 67 75.2876 67C73.2411 67 70.7391 67.725 68.1931 68.9533C65.6864 70.1627 63.5417 71.6639 62.3026 72.754C60.2293 74.578 57.07 74.3759 55.2459 72.3027C53.4219 70.2294 53.624 67.07 55.6973 65.246C57.6409 63.5361 60.5509 61.5373 63.8479 59.9467C67.1055 58.375 71.156 57 75.2876 57C80.3577 57 83.6737 59.6231 85.7542 61.2688C85.8834 61.371 86.0078 61.4695 86.1276 61.5632C88.2404 63.2176 89.4443 64 91.5753 64C93.9684 64 95.9956 62.979 98.7596 61.2565C98.957 61.1335 99.1642 61.0031 99.3796 60.8675C100.524 60.147 101.901 59.2802 103.269 58.6073C104.969 57.771 107.087 57 109.548 57C111.991 57 114.131 57.7604 115.851 58.585C117.364 59.3102 118.851 60.2401 120.082 61.0099C120.216 61.0942 120.348 61.1765 120.477 61.2565C123.44 63.1035 125.224 64 126.959 64C128.211 64 130.352 63.3237 132.758 61.9967C135.168 60.6678 136.759 59.2956 137.1 58.8709C138.828 56.7171 141.975 56.372 144.129 58.1001Z"
                      fill="white"/>
                <path fill-rule="evenodd" clip-rule="evenodd"
                      d="M118.033 104.025C120.229 105.701 120.65 108.838 118.975 111.033C117.508 112.955 114.727 115.099 111.965 116.701C109.218 118.293 105.387 120 101.644 120C96.809 120 92.8501 117.405 90.3487 115.765C90.3061 115.737 90.264 115.71 90.2223 115.682C90.1164 115.613 90.0129 115.545 89.9114 115.479C88.631 114.639 87.6872 114.02 86.7721 113.559C85.8239 113.081 85.3255 113 85.0822 113C84.8577 113 84.4062 113.069 83.5059 113.535C82.707 113.948 81.9161 114.47 80.8306 115.186C80.5939 115.342 80.3433 115.507 80.0756 115.682C77.377 117.45 73.3386 120 67.9863 120C62.3602 120 58.9178 117.191 56.6945 115.36C54.3521 113.432 53.6854 113 52.4931 113C50.6509 113 48.3413 113.691 45.9397 114.909C43.5833 116.104 41.5621 117.591 40.3949 118.671C38.3677 120.546 35.2043 120.422 33.3293 118.395C31.4543 116.368 31.5777 113.204 33.605 111.329C35.4652 109.609 38.2523 107.596 41.4163 105.991C44.5353 104.409 48.4586 103 52.4931 103C57.4777 103 60.7272 105.706 62.6858 107.338C62.8125 107.443 62.9338 107.544 63.0499 107.64C65.0784 109.309 66.1329 110 67.9863 110C70.1133 110 71.9517 109.05 74.5956 107.318C74.781 107.196 74.9765 107.067 75.1803 106.932C76.268 106.212 77.5941 105.334 78.9119 104.653C80.5492 103.806 82.6354 103 85.0822 103C87.51 103 89.6161 103.794 91.2724 104.629C92.729 105.363 94.1584 106.303 95.3265 107.071C95.4551 107.155 95.5804 107.238 95.7023 107.318C98.5514 109.184 100.15 110 101.644 110C102.709 110 104.666 109.373 106.949 108.049C109.218 106.734 110.711 105.378 111.025 104.967C112.701 102.771 115.838 102.35 118.033 104.025Z"
                      fill="white"/>
            </g>
            <defs>
                <filter id="filter0_d_1506_812" x="20.9999" y="43.9998" width="166.5" height="114.501"
                        filterUnits="userSpaceOnUse" color-interpolation-filters="sRGB">
                    <feFlood flood-opacity="0" result="BackgroundImageFix"/>
                    <feColorMatrix in="SourceAlpha" type="matrix" values="0 0 0 0 0 0 0 0 0 0 0 0 0 0 0 0 0 0 127 0"
                                   result="hardAlpha"/>
                    <feOffset dx="4" dy="2"/>
                    <feGaussianBlur stdDeviation="7.5"/>
                    <feComposite in2="hardAlpha" operator="out"/>
                    <feColorMatrix type="matrix" values="0 0 0 0 1 0 0 0 0 1 0 0 0 0 1 0 0 0 0.596 0"/>
                    <feBlend mode="normal" in2="BackgroundImageFix" result="effect1_dropShadow_1506_812"/>
                    <feBlend mode="normal" in="SourceGraphic" in2="effect1_dropShadow_1506_812" result="shape"/>
                </filter>
            </defs>
        </symbol>
        <symbol id="rain" viewBox="0 0 200 200">
            <g clip-path="url(#clip0_1506_808)">
                <path d="M47.6263 147.552C48.4784 147.561 57.1153 161.047 57.1153 166.288C57.1153 168.805 56.1156 171.218 54.336 172.998C52.5565 174.777 50.143 175.777 47.6263 175.777C45.1097 175.777 42.6961 174.777 40.9166 172.998C39.1371 171.218 38.1373 168.805 38.1373 166.288C38.1373 161.048 46.7748 147.542 47.6263 147.552Z"
                      fill="#42A0F0"/>
                <path d="M40.3918 169.834C41.3399 170.124 42.5449 168.932 43.0833 167.171C43.6216 165.411 43.2893 163.748 42.3412 163.458C41.393 163.168 40.188 164.361 39.6497 166.122C39.1114 167.882 39.4436 169.545 40.3918 169.834Z"
                      fill="white"/>
                <path d="M97.1535 147.552C98.0056 147.561 106.643 161.047 106.643 166.288C106.643 168.805 105.643 171.218 103.863 172.998C102.084 174.777 99.6702 175.777 97.1535 175.777C94.6369 175.777 92.2233 174.777 90.4438 172.998C88.6643 171.218 87.6646 168.805 87.6646 166.288C87.6646 161.048 96.302 147.542 97.1535 147.552Z"
                      fill="#42A0F0"/>
                <path d="M89.919 169.834C90.8672 170.124 92.0722 168.932 92.6105 167.171C93.1488 165.411 92.8166 163.748 91.8684 163.458C90.9202 163.168 89.7152 164.361 89.1769 166.122C88.6386 167.882 88.9708 169.545 89.919 169.834Z"
                      fill="white"/>
                <path d="M146.681 147.552C147.533 147.561 156.17 161.047 156.17 166.288C156.17 168.805 155.17 171.218 153.39 172.998C151.611 174.777 149.197 175.777 146.681 175.777C144.164 175.777 141.751 174.777 139.971 172.998C138.192 171.218 137.192 168.805 137.192 166.288C137.192 161.048 145.829 147.542 146.681 147.552Z"
                      fill="#42A0F0"/>
                <path d="M139.446 169.834C140.394 170.124 141.599 168.932 142.138 167.171C142.676 165.411 142.344 163.748 141.396 163.458C140.447 163.168 139.242 164.361 138.704 166.122C138.166 167.882 138.498 169.545 139.446 169.834Z"
                      fill="white"/>
                <path d="M72.6562 106.013C73.5083 106.022 82.1452 119.508 82.1452 124.749C82.1452 127.266 81.1455 129.679 79.366 131.459C77.5864 133.238 75.1729 134.238 72.6562 134.238C70.1396 134.238 67.726 133.238 65.9465 131.459C64.167 129.679 63.1672 127.266 63.1672 124.749C63.1672 119.509 71.8047 106.003 72.6562 106.013Z"
                      fill="#42A0F0"/>
                <path d="M65.4216 128.296C66.3698 128.585 67.5748 127.393 68.1131 125.632C68.6514 123.872 68.3192 122.209 67.371 121.919C66.4229 121.629 65.2178 122.822 64.6795 124.583C64.1412 126.343 64.4735 128.006 65.4216 128.296Z"
                      fill="white"/>
                <path d="M124.846 106.013C125.698 106.022 134.335 119.508 134.335 124.749C134.335 127.266 133.335 129.679 131.556 131.459C129.776 133.238 127.363 134.238 124.846 134.238C122.33 134.238 119.916 133.238 118.136 131.459C116.357 129.679 115.357 127.266 115.357 124.749C115.357 119.509 123.995 106.003 124.846 106.013Z"
                      fill="#42A0F0"/>
                <path d="M117.612 128.296C118.56 128.585 119.765 127.393 120.303 125.632C120.841 123.872 120.509 122.209 119.561 121.919C118.613 121.629 117.408 122.822 116.869 124.583C116.331 126.343 116.663 128.006 117.612 128.296Z"
                      fill="white"/>
                <g filter="url(#filter0_d_1506_808)">
                    <path d="M146.245 141.694H44.2973C34.4076 141.686 24.9043 137.853 17.7767 130.997C10.649 124.141 6.44985 114.794 6.05816 104.912C5.66646 95.0303 9.11262 85.3799 15.6752 77.9814C22.2378 70.5828 31.408 66.0097 41.2661 65.2195C42.6719 55.2927 47.1545 46.0565 54.0833 38.8103C61.0121 31.564 70.0384 26.6724 79.8922 24.8236C89.7461 22.9748 99.9316 24.2618 109.016 28.5037C118.1 32.7455 125.626 39.7287 130.534 48.4707C139.537 45.3543 149.264 44.9901 158.475 47.4248C167.686 49.8595 175.962 54.9825 182.249 62.1406C188.536 69.2986 192.549 78.1672 193.774 87.615C195 97.0628 193.384 106.662 189.132 115.187C186.637 122.89 181.765 129.604 175.217 134.366C168.669 139.128 160.781 141.693 152.684 141.694H146.245Z"
                          fill="url(#paint0_linear_1506_808)"/>
                    <path d="M152.684 141.161C156.795 141.161 160.837 140.504 164.698 139.21C168.431 137.958 171.936 136.131 175.115 133.78C178.258 131.456 181.013 128.672 183.303 125.505C185.622 122.299 187.413 118.773 188.625 115.023L188.638 114.985L188.656 114.949C190.268 111.728 191.509 108.32 192.345 104.822C193.206 101.221 193.642 97.501 193.642 93.7639C193.642 90.5477 193.318 87.3338 192.679 84.2112C192.056 81.1683 191.127 78.1752 189.917 75.3151C188.729 72.5067 187.259 69.798 185.547 67.2642C183.852 64.7544 181.904 62.3942 179.759 60.2492C177.614 58.1043 175.254 56.1569 172.744 54.4613C170.211 52.7495 167.502 51.2792 164.694 50.0914C161.833 48.8816 158.84 47.9525 155.797 47.3298C152.675 46.6908 149.461 46.3669 146.245 46.3669C140.919 46.3669 135.692 47.2432 130.709 48.9717L130.288 49.1175L130.07 48.7296C126.014 41.5178 120.115 35.4614 113.009 31.2149C109.416 29.0673 105.555 27.4078 101.535 26.2823C97.3868 25.1213 93.0785 24.5326 88.7293 24.5326C82.8793 24.5326 77.1689 25.5854 71.7566 27.6618C66.5279 29.6678 61.7315 32.5654 57.5004 36.2742C53.2937 39.9617 49.8027 44.3126 47.1243 49.2061C44.3801 54.2197 42.5865 59.6315 41.7934 65.2913L41.7341 65.7149L41.3076 65.7483C36.5369 66.1217 31.9469 67.3778 27.6651 69.4815C23.5046 71.5257 19.7894 74.2906 16.6228 77.6994C10.116 84.7038 6.53255 93.8298 6.53255 103.396C6.53255 108.495 7.53096 113.44 9.50007 118.096C10.4465 120.333 11.6179 122.492 12.9819 124.51C14.3329 126.51 15.8845 128.391 17.5936 130.1C19.3026 131.809 21.1832 133.361 23.183 134.712C25.2019 136.076 27.3601 137.247 29.5977 138.193C34.2531 140.162 39.1988 141.161 44.2971 141.161H146.245H152.684ZM152.684 141.693H146.245H44.2971C23.1463 141.693 6 124.547 6 103.396C6 83.2653 21.5316 66.7621 41.266 65.2174C44.5303 41.9243 64.5363 24 88.7293 24C106.677 24 122.321 33.8645 130.534 48.4685C135.456 46.7615 140.742 45.8343 146.245 45.8343C172.715 45.8343 194.174 67.2933 194.174 93.7639C194.174 101.464 192.359 108.74 189.132 115.187C184.159 130.568 169.721 141.693 152.684 141.693Z"
                          fill="white" fill-opacity="0.5"/>
                </g>
            </g>
            <defs>
                <filter id="filter0_d_1506_808" x="-14" y="-4" width="248.174" height="177.694"
                        color-interpolation-filters="sRGB">
                    <feFlood flood-opacity="0" result="BackgroundImageFix"/>
                    <feColorMatrix in="SourceAlpha" values="0 0 0 0 0 0 0 0 0 0 0 0 0 0 0 0 0 0 127 0"
                                   result="hardAlpha"/>
                    <feOffset dx="10" dy="2"/>
                    <feGaussianBlur stdDeviation="15"/>
                    <feColorMatrix type="matrix" values="0 0 0 0 0 0 0 0 0 0 0 0 0 0 0 0 0 0 0.25 0"/>
                    <feBlend mode="normal" in2="BackgroundImageFix" result="effect1_dropShadow_1506_808"/>
                    <feBlend mode="normal" in="SourceGraphic" in2="effect1_dropShadow_1506_808" result="shape"/>
                </filter>
                <linearGradient id="paint0_linear_1506_808" x1="100.101" y1="24.0014" x2="154.763" y2="156.161"
                                gradientUnits="userSpaceOnUse">
                    <stop stop-color="white" stop-opacity="0.604"/>
                    <stop offset="1" stop-color="white" stop-opacity="0.2"/>
                </linearGradient>
                <clipPath id="clip0_1506_808">
                    <rect width="200" height="200" fill="white"/>
                </clipPath>
            </defs>
        </symbol>
        <symbol id="snow" viewBox="0 0 200 200">
            <g clip-path="url(#clip0_1506_811)">
                <path fill-rule="evenodd" clip-rule="evenodd"
                      d="M61.6951 102.521C62.8562 101.804 64.3847 102.162 65.109 103.321L100.621 160.141C101.345 161.3 100.991 162.82 99.8301 163.537C98.669 164.253 97.1405 163.895 96.4162 162.736L60.9041 105.916C60.1798 104.758 60.5339 103.237 61.6951 102.521Z"
                      fill="#42A0F0"/>
                <path fill-rule="evenodd" clip-rule="evenodd"
                      d="M75.9611 99.942C77.2762 100.276 78.0696 101.63 77.7332 102.966L73.6501 119.184C73.3136 120.52 71.9747 121.333 70.6596 120.999C69.3444 120.665 68.551 119.311 68.8875 117.974L72.9706 101.757C73.307 100.42 74.6459 99.6079 75.9611 99.942Z"
                      fill="#42A0F0"/>
                <path fill-rule="evenodd" clip-rule="evenodd"
                      d="M52.7494 114.584C53.0163 113.232 54.3117 112.349 55.6427 112.613L72.0576 115.861C73.3885 116.125 74.2511 117.434 73.9841 118.786C73.7172 120.138 72.4218 121.021 71.0908 120.758L54.6759 117.509C53.345 117.246 52.4824 115.936 52.7494 114.584Z"
                      fill="#42A0F0"/>
                <path fill-rule="evenodd" clip-rule="evenodd"
                      d="M88.1117 148.632C88.3997 147.284 89.7086 146.422 91.0352 146.707L107.134 150.163C108.461 150.448 109.303 151.771 109.015 153.119C108.727 154.467 107.418 155.328 106.092 155.044L89.9923 151.588C88.6657 151.303 87.8237 149.979 88.1117 148.632Z"
                      fill="#42A0F0"/>
                <path fill-rule="evenodd" clip-rule="evenodd"
                      d="M91.4696 146.473C92.7793 146.828 93.5513 148.195 93.1941 149.526L88.7881 165.941C88.4309 167.272 87.0796 168.063 85.77 167.707C84.4603 167.352 83.6883 165.985 84.0455 164.655L88.4515 148.24C88.8087 146.909 90.16 146.118 91.4696 146.473Z"
                      fill="#42A0F0"/>
                <path fill-rule="evenodd" clip-rule="evenodd"
                      d="M97.7351 101.442C98.8741 102.046 99.2444 103.576 98.562 104.859L67.1111 164.023C66.4288 165.307 64.9523 165.858 63.8132 165.254C62.6742 164.651 62.3039 163.121 62.9863 161.837L94.4372 102.673C95.1195 101.389 96.596 100.838 97.7351 101.442Z"
                      fill="#42A0F0"/>
                <path fill-rule="evenodd" clip-rule="evenodd"
                      d="M106.83 112.112C107.115 113.453 106.291 114.9 104.99 115.344L89.2093 120.74C87.9082 121.184 86.6226 120.458 86.3377 119.118C86.0528 117.778 86.8765 116.331 88.1775 115.886L103.959 110.491C105.26 110.046 106.545 110.772 106.83 112.112Z"
                      fill="#42A0F0"/>
                <path fill-rule="evenodd" clip-rule="evenodd"
                      d="M83.226 99.6928C84.5035 99.1542 85.8443 99.7758 86.2206 101.081L90.8656 117.191C91.242 118.496 90.5115 119.991 89.2339 120.53C87.9564 121.068 86.6156 120.447 86.2393 119.141L81.5943 103.032C81.2179 101.726 81.9484 100.231 83.226 99.6928Z"
                      fill="#42A0F0"/>
                <path fill-rule="evenodd" clip-rule="evenodd"
                      d="M71.4143 147.341C72.6976 146.824 74.0266 147.469 74.3827 148.782L78.7023 164.717C79.0584 166.031 78.3067 167.516 77.0233 168.034C75.74 168.552 74.411 167.906 74.0548 166.593L69.7353 150.658C69.3792 149.344 70.1309 147.859 71.4143 147.341Z"
                      fill="#42A0F0"/>
                <path fill-rule="evenodd" clip-rule="evenodd"
                      d="M74.2832 148.803C74.5475 150.15 73.7035 151.586 72.3982 152.009L56.2885 157.236C54.9831 157.659 53.7107 156.911 53.4464 155.564C53.1822 154.216 54.0261 152.781 55.3315 152.358L71.4412 147.131C72.7465 146.708 74.019 147.456 74.2832 148.803Z"
                      fill="#42A0F0"/>
                <path fill-rule="evenodd" clip-rule="evenodd"
                      d="M116.322 132.264C116.284 133.727 115.206 134.951 113.915 134.996L46.9525 137.341C45.6615 137.386 44.6457 136.236 44.6837 134.772C44.7217 133.309 45.799 132.085 47.09 132.04L114.053 129.695C115.344 129.65 116.36 130.8 116.322 132.264Z"
                      fill="#42A0F0"/>
                <path fill-rule="evenodd" clip-rule="evenodd"
                      d="M111.736 145.231C110.924 146.409 109.452 146.662 108.448 145.795L96.1391 135.16C95.1353 134.293 94.9802 132.634 95.7927 131.456C96.6053 130.277 98.0777 130.025 99.0815 130.892L111.39 141.526C112.394 142.394 112.549 144.052 111.736 145.231Z"
                      fill="#42A0F0"/>
                <path fill-rule="evenodd" clip-rule="evenodd"
                      d="M111.295 118.669C112.125 119.745 111.996 121.422 111.007 122.413L98.7078 134.735C97.7185 135.726 96.2436 135.657 95.4135 134.58C94.5835 133.503 94.7126 131.827 95.702 130.836L108.001 118.514C108.99 117.523 110.465 117.592 111.295 118.669Z"
                      fill="#42A0F0"/>
                <path fill-rule="evenodd" clip-rule="evenodd"
                      d="M64.1041 132.271C64.9188 133.363 64.767 135.038 63.765 136.012L51.4783 147.962C50.4763 148.937 49.0036 148.842 48.1888 147.75C47.3741 146.658 47.5259 144.983 48.528 144.009L60.8146 132.059C61.8166 131.085 63.2893 131.18 64.1041 132.271Z"
                      fill="#42A0F0"/>
                <path fill-rule="evenodd" clip-rule="evenodd"
                      d="M63.6917 135.398C62.8639 136.563 61.3892 136.79 60.3981 135.904L48.0764 124.899C47.0852 124.013 46.9528 122.351 47.7806 121.186C48.6085 120.021 50.0831 119.794 51.0743 120.679L63.396 131.685C64.3872 132.57 64.5196 134.232 63.6917 135.398Z"
                      fill="#42A0F0"/>
                <path fill-rule="evenodd" clip-rule="evenodd"
                      d="M152.194 139.161C152.946 139.488 153.284 140.362 152.95 141.113L139.438 171.457C139.104 172.208 138.223 172.551 137.471 172.224C136.719 171.896 136.381 171.022 136.715 170.271L150.227 139.927C150.561 139.177 151.442 138.833 152.194 139.161Z"
                      fill="#42A0F0"/>
                <path fill-rule="evenodd" clip-rule="evenodd"
                      d="M157.234 144.571C157.51 145.363 157.115 146.22 156.352 146.486L148.724 149.137C147.962 149.402 147.12 148.974 146.844 148.182C146.568 147.39 146.962 146.533 147.725 146.268L155.353 143.617C156.116 143.352 156.958 143.779 157.234 144.571Z"
                      fill="#42A0F0"/>
                <path fill-rule="evenodd" clip-rule="evenodd"
                      d="M144.389 138.725C145.126 138.394 145.998 138.748 146.338 139.515L149.787 147.311C150.127 148.078 149.804 148.968 149.068 149.299C148.331 149.63 147.459 149.277 147.119 148.51L143.67 140.713C143.33 139.946 143.653 139.056 144.389 138.725Z"
                      fill="#42A0F0"/>
                <path fill-rule="evenodd" clip-rule="evenodd"
                      d="M140.198 162.696C140.94 162.377 141.808 162.745 142.135 163.517L145.412 171.239C145.739 172.011 145.404 172.895 144.662 173.214C143.919 173.533 143.052 173.165 142.725 172.393L139.448 164.671C139.12 163.899 139.456 163.015 140.198 162.696Z"
                      fill="#42A0F0"/>
                <path fill-rule="evenodd" clip-rule="evenodd"
                      d="M142.407 163.85C142.671 164.646 142.263 165.496 141.496 165.749L133.699 168.316C132.932 168.568 132.096 168.127 131.833 167.331C131.569 166.535 131.976 165.685 132.743 165.432L140.54 162.865C141.307 162.613 142.143 163.053 142.407 163.85Z"
                      fill="#42A0F0"/>
                <path fill-rule="evenodd" clip-rule="evenodd"
                      d="M162.635 153.902C162.704 154.766 162.126 155.533 161.345 155.615L128.311 159.085C127.53 159.167 126.841 158.533 126.773 157.669C126.704 156.805 127.281 156.038 128.062 155.956L161.097 152.486C161.878 152.404 162.566 153.038 162.635 153.902Z"
                      fill="#42A0F0"/>
                <path fill-rule="evenodd" clip-rule="evenodd"
                      d="M160.771 161.012C160.313 161.694 159.422 161.817 158.78 161.285L152.31 155.924C151.668 155.392 151.52 154.408 151.978 153.726C152.436 153.043 153.327 152.921 153.968 153.452L160.439 158.814C161.08 159.345 161.229 160.329 160.771 161.012Z"
                      fill="#42A0F0"/>
                <path fill-rule="evenodd" clip-rule="evenodd"
                      d="M159.309 147.194C159.909 147.782 159.981 148.773 159.469 149.408L154.237 155.898C153.725 156.532 152.824 156.569 152.225 155.981C151.625 155.393 151.553 154.402 152.065 153.768L157.297 147.278C157.809 146.643 158.71 146.606 159.309 147.194Z"
                      fill="#42A0F0"/>
                <path fill-rule="evenodd" clip-rule="evenodd"
                      d="M136.452 155.551C137.044 156.149 137.101 157.141 136.581 157.766L131.328 164.072C130.807 164.697 129.905 164.719 129.313 164.121C128.722 163.523 128.664 162.532 129.185 161.907L134.438 155.601C134.958 154.976 135.86 154.954 136.452 155.551Z"
                      fill="#42A0F0"/>
                <path fill-rule="evenodd" clip-rule="evenodd"
                      d="M136.669 157.81C136.201 158.484 135.307 158.591 134.673 158.049L128.183 152.503C127.549 151.961 127.414 150.975 127.882 150.301C128.35 149.627 129.243 149.52 129.878 150.062L136.368 155.608C137.002 156.15 137.137 157.136 136.669 157.81Z"
                      fill="#42A0F0"/>
                <path fill-rule="evenodd" clip-rule="evenodd"
                      d="M155.238 170.421C154.604 170.878 153.68 170.683 153.174 169.986L133.651 143.112C133.144 142.414 133.247 141.478 133.88 141.021C134.513 140.564 135.438 140.759 135.944 141.457L155.467 168.33C155.974 169.028 155.871 169.964 155.238 170.421Z"
                      fill="#42A0F0"/>
                <path fill-rule="evenodd" clip-rule="evenodd"
                      d="M148.369 172.16C147.563 171.983 146.987 171.182 147.082 170.369L148.043 162.23C148.139 161.417 148.87 160.902 149.677 161.079C150.483 161.256 151.06 162.057 150.964 162.87L150.003 171.009C149.908 171.822 149.176 172.337 148.369 172.16Z"
                      fill="#42A0F0"/>
                <path fill-rule="evenodd" clip-rule="evenodd"
                      d="M159.316 164.24C159.246 165.057 158.534 165.598 157.725 165.448L149.476 163.918C148.667 163.768 148.067 162.984 148.136 162.166C148.206 161.349 148.918 160.808 149.728 160.958L157.976 162.488C158.785 162.638 159.385 163.422 159.316 164.24Z"
                      fill="#42A0F0"/>
                <path fill-rule="evenodd" clip-rule="evenodd"
                      d="M140.653 148.621C140.571 149.436 139.849 149.965 139.041 149.802L130.942 148.168C130.134 148.005 129.545 147.212 129.627 146.397C129.71 145.582 130.432 145.053 131.24 145.216L139.339 146.85C140.147 147.013 140.735 147.806 140.653 148.621Z"
                      fill="#42A0F0"/>
                <path fill-rule="evenodd" clip-rule="evenodd"
                      d="M139.093 149.682C138.288 149.493 137.723 148.683 137.832 147.873L138.939 139.625C139.048 138.816 139.788 138.313 140.593 138.503C141.398 138.693 141.963 139.502 141.854 140.312L140.747 148.56C140.638 149.369 139.898 149.872 139.093 149.682Z"
                      fill="#42A0F0"/>
                <g filter="url(#filter0_d_1506_811)">
                    <path d="M146.245 136.694H44.2973C34.4076 136.686 24.9043 132.853 17.7767 125.997C10.649 119.141 6.44985 109.794 6.05816 99.9122C5.66646 90.0303 9.11262 80.3799 15.6752 72.9813C22.2378 65.5828 31.408 61.0097 41.2661 60.2194C42.6719 50.2927 47.1545 41.0565 54.0833 33.8102C61.0121 26.5639 70.0384 21.6723 79.8922 19.8235C89.7461 17.9747 99.9316 19.2618 109.016 23.5036C118.1 27.7455 125.626 34.7287 130.534 43.4707C139.537 40.3543 149.264 39.9901 158.474 42.4246C167.685 44.8591 175.962 49.9819 182.249 57.1397C188.536 64.2974 192.548 73.1656 193.774 82.6132C195 92.0607 193.385 101.659 189.133 110.185C186.638 117.888 181.767 124.603 175.219 129.365C168.67 134.128 160.781 136.693 152.684 136.694H146.245Z"
                          fill="url(#paint0_linear_1506_811)"/>
                    <path d="M152.684 136.161C156.796 136.161 160.838 135.504 164.699 134.21C168.433 132.958 171.938 131.131 175.117 128.78C178.26 126.455 181.015 123.671 183.305 120.504C185.624 117.298 187.414 113.771 188.626 110.021L188.639 109.983L188.657 109.946C190.268 106.726 191.509 103.319 192.345 99.8202C193.206 96.2199 193.642 92.5 193.642 88.7639C193.642 85.5477 193.318 82.3337 192.679 79.2112C192.056 76.1683 191.127 73.1752 189.917 70.3151C188.73 67.5067 187.259 64.798 185.547 62.2642C183.852 59.7543 181.905 57.3942 179.76 55.2492C177.615 53.1042 175.254 51.1569 172.745 49.4613C170.211 47.7494 167.502 46.2792 164.694 45.0914C161.834 43.8816 158.84 42.9525 155.798 42.3298C152.675 41.6908 149.461 41.3668 146.245 41.3668C140.92 41.3668 135.692 42.2433 130.709 43.9717L130.288 44.1175L130.07 43.7296C126.014 36.5179 120.115 30.4614 113.009 26.2149C109.416 24.0674 105.555 22.4078 101.535 21.2824C97.3868 20.1212 93.0785 19.5325 88.7293 19.5325C82.8793 19.5325 77.1689 20.5854 71.7566 22.6618C66.5279 24.6678 61.7315 27.5654 57.5004 31.2742C53.2937 34.9617 49.8027 39.3126 47.1243 44.206C44.3801 49.2196 42.5865 54.6315 41.7934 60.2913L41.7341 60.7149L41.3076 60.7483C36.5369 61.1217 31.9469 62.3778 27.6651 64.4815C23.5046 66.5257 19.7894 69.2906 16.6228 72.6994C10.116 79.7038 6.53255 88.8298 6.53255 98.3963C6.53255 103.495 7.53096 108.44 9.50007 113.096C10.4465 115.333 11.6179 117.492 12.9819 119.51C14.3329 121.51 15.8845 123.391 17.5936 125.1C19.3026 126.809 21.1832 128.361 23.183 129.712C25.2019 131.075 27.3601 132.247 29.5977 133.193C34.2531 135.162 39.1988 136.161 44.2971 136.161H146.245H152.684ZM152.684 136.693H146.245H44.2971C23.1463 136.693 6 119.547 6 98.3963C6 78.2653 21.5316 61.7621 41.266 60.2173C44.5303 36.9242 64.5363 19 88.7293 19C106.677 19 122.321 28.8645 130.534 43.4686C135.456 41.7616 140.742 40.8343 146.245 40.8343C172.716 40.8343 194.174 62.2933 194.174 88.7639C194.174 96.4625 192.359 103.739 189.133 110.185C184.162 125.568 169.722 136.693 152.684 136.693Z"
                          fill="white" fill-opacity="0.5"/>
                </g>
            </g>
            <defs>
                <filter id="filter0_d_1506_811" x="-14" y="-9.00002" width="248.174" height="177.694"
                        filterUnits="userSpaceOnUse" color-interpolation-filters="sRGB">
                    <feFlood flood-opacity="0" result="BackgroundImageFix"/>
                    <feColorMatrix in="SourceAlpha" type="matrix" values="0 0 0 0 0 0 0 0 0 0 0 0 0 0 0 0 0 0 127 0"
                                   result="hardAlpha"/>
                    <feOffset dx="10" dy="2"/>
                    <feGaussianBlur stdDeviation="15"/>
                    <feColorMatrix type="matrix" values="0 0 0 0 0 0 0 0 0 0 0 0 0 0 0 0 0 0 0.25 0"/>
                    <feBlend mode="normal" in2="BackgroundImageFix" result="effect1_dropShadow_1506_811"/>
                    <feBlend mode="normal" in="SourceGraphic" in2="effect1_dropShadow_1506_811" result="shape"/>
                </filter>
                <linearGradient id="paint0_linear_1506_811" x1="100.101" y1="19.0013" x2="154.763" y2="151.161"
                                gradientUnits="userSpaceOnUse">
                    <stop stop-color="white" stop-opacity="0.604"/>
                    <stop offset="1" stop-color="white" stop-opacity="0.2"/>
                </linearGradient>
                <clipPath id="clip0_1506_811">
                    <rect width="200" height="200" fill="white"/>
                </clipPath>
            </defs>
        </symbol>
        <symbol id="squall" viewBox="0 0 200 200">
            <g filter="url(#filter0_d_1506_804)">
                <path fill-rule="evenodd" clip-rule="evenodd"
                      d="M141.768 54.3101C145.751 52.6414 150.366 52.4729 155.413 54.3506C165.594 58.138 170.514 67.6831 170.517 76.6604C170.521 85.6532 165.546 95.0831 155.065 98.1273C150.5 99.4529 142.424 100.286 133.444 100.86C124.271 101.447 113.58 101.791 103.434 101.992C93.2796 102.192 83.6266 102.248 76.5152 102.254C72.9584 102.257 70.035 102.248 67.9994 102.238C66.9815 102.232 66.1855 102.227 65.6432 102.223C65.372 102.221 65.1642 102.219 65.0238 102.218L64.8098 102.216C64.8091 102.216 64.8087 102.216 64.8566 97.2165C64.9045 92.2167 64.9046 92.2167 64.905 92.2167L64.9072 92.2167L65.1092 92.2185C65.246 92.2197 65.4501 92.2214 65.7175 92.2234C66.2523 92.2273 67.0402 92.2326 68.0495 92.2376C70.0682 92.2478 72.9719 92.2571 76.5066 92.2541C83.5779 92.248 93.1645 92.1921 103.237 91.9935C113.319 91.7947 123.844 91.4536 132.805 90.8804C141.959 90.2949 148.937 89.4937 152.276 88.524C157.6 86.9776 160.519 82.1996 160.517 76.6639C160.516 71.1127 157.533 65.8087 151.927 63.7231C149.081 62.6643 147.102 62.9175 145.633 63.5331C144.022 64.2082 142.526 65.538 141.186 67.358C139.859 69.1614 138.877 71.1881 138.219 72.8293C137.896 73.6352 137.664 74.3137 137.517 74.7771C137.444 75.008 137.393 75.1832 137.362 75.2914C137.346 75.3454 137.336 75.3826 137.331 75.4014L137.33 75.4045C137.329 75.4074 137.329 75.4103 137.328 75.4132C137.328 75.4139 137.328 75.4145 137.327 75.4152C136.634 78.0812 133.914 79.6853 131.244 78.9991C128.569 78.3117 126.958 75.5864 127.646 72.9119L132.488 74.1565C127.646 72.9119 127.646 72.91 127.647 72.908L127.651 72.8933L127.658 72.867L127.678 72.7915C127.694 72.7312 127.716 72.6512 127.744 72.5529C127.8 72.3565 127.88 72.0864 127.985 71.7548C128.195 71.0931 128.508 70.1774 128.937 69.107C129.784 66.9956 131.137 64.1412 133.132 61.4306C135.115 58.7366 137.928 55.9195 141.768 54.3101ZM59.8568 97.1686C59.8833 94.4073 62.1437 92.1902 64.905 92.2167L64.8566 97.2165L64.8087 102.216C62.0474 102.19 59.8303 99.9299 59.8568 97.1686Z"
                      fill="#DADADA"/>
                <path fill-rule="evenodd" clip-rule="evenodd"
                      d="M83.4905 127.229C83.4905 127.229 83.4905 127.229 83.4891 127.215L83.4905 127.229C80.7438 127.513 78.2863 125.518 78.0016 122.771C77.717 120.024 79.7128 117.567 82.4595 117.282L82.975 122.255C82.4595 117.282 82.4601 117.282 82.4608 117.282L82.6438 117.263C82.7621 117.251 82.9364 117.234 83.1634 117.211C83.6174 117.166 84.2825 117.101 85.1334 117.021C86.8352 116.861 89.2815 116.639 92.2706 116.393C98.2452 115.901 106.406 115.309 115.134 114.915C123.849 114.521 133.199 114.32 141.532 114.62C149.692 114.913 157.461 115.699 162.668 117.542C167.677 119.315 171.532 121.824 173.988 125.091C176.526 128.465 177.306 132.314 176.645 136C175.39 142.991 169.249 148.534 162.573 150.746C159.08 151.903 155.851 151.99 152.967 151.228C150.12 150.476 147.921 148.98 146.306 147.439C144.706 145.911 143.609 144.273 142.919 143.054C142.568 142.435 142.306 141.897 142.126 141.495C142.035 141.293 141.964 141.124 141.911 140.993C141.884 140.927 141.863 140.871 141.845 140.826L141.822 140.765L141.813 140.741L141.809 140.73L141.807 140.725C141.806 140.722 141.805 140.72 146.371 139.047L141.805 140.72C140.855 138.127 142.187 135.255 144.78 134.305C147.358 133.36 150.213 134.672 151.179 137.237C151.179 137.238 151.18 137.24 151.181 137.242C151.19 137.264 151.212 137.317 151.247 137.396C151.319 137.556 151.442 137.812 151.619 138.125C151.984 138.769 152.517 139.543 153.212 140.206C153.892 140.855 154.652 141.33 155.521 141.56C156.354 141.78 157.598 141.86 159.427 141.254C163.672 139.847 166.369 136.646 166.802 134.233C166.984 133.217 166.822 132.199 165.996 131.101C165.089 129.894 163.16 128.324 159.332 126.969C155.702 125.684 149.299 124.906 141.172 124.613C133.219 124.327 124.168 124.517 115.586 124.905C107.017 125.292 98.985 125.874 93.0914 126.359C90.1464 126.601 87.7397 126.82 86.072 126.977C85.2383 127.055 84.5895 127.119 84.1508 127.162C83.9315 127.184 83.7647 127.201 83.6536 127.212L83.4905 127.229ZM151.193 137.275C151.193 137.275 151.193 137.275 151.193 137.274ZM151.193 137.275C151.194 137.278 151.195 137.28 146.5 139L151.195 137.28C151.194 137.278 151.194 137.277 151.193 137.275Z"
                      fill="#DADADA"/>
                <path fill-rule="evenodd" clip-rule="evenodd"
                      d="M30.7329 124.882C30.7329 122.121 32.9715 119.882 35.7329 119.882H57.0349C59.7964 119.882 62.0349 122.121 62.0349 124.882C62.0349 127.644 59.7964 129.882 57.0349 129.882H35.7329C32.9715 129.882 30.7329 127.644 30.7329 124.882Z"
                      fill="#DADADA"/>
                <path fill-rule="evenodd" clip-rule="evenodd"
                      d="M110.851 65.705C111.117 68.4536 109.105 70.8975 106.356 71.1636L105.874 66.1869C106.356 71.1636 106.356 71.1636 106.356 71.1636L106.047 71.1931C105.847 71.212 105.553 71.2395 105.173 71.2744C104.413 71.3443 103.308 71.4439 101.924 71.5633C99.1558 71.802 95.2649 72.12 90.7675 72.4381C81.7981 73.0726 70.3187 73.7143 60.5114 73.7143C50.7718 73.7143 41.8035 73.3738 35.2738 73.0339C32.0067 72.8638 29.3445 72.6936 27.495 72.5656C26.5701 72.5016 25.8481 72.448 25.3548 72.4103C25.1082 72.3915 24.9187 72.3766 24.7896 72.3663L24.6417 72.3544L24.5875 72.35C24.5871 72.3499 24.5868 72.3499 24.9999 67.367L24.5875 72.35C21.8355 72.1218 19.7889 69.7059 20.017 66.9539C20.2451 64.202 22.6608 62.1561 25.4127 62.3841L25.4525 62.3873L25.5846 62.3979C25.703 62.4074 25.8815 62.4214 26.1169 62.4394C26.5877 62.4754 27.2859 62.5272 28.1856 62.5895C29.9854 62.714 32.5902 62.8807 35.7936 63.0474C42.205 63.3812 50.9925 63.7143 60.5114 63.7143C69.9629 63.7143 81.1648 63.0924 90.062 62.4631C94.498 62.1493 98.3367 61.8355 101.065 61.6003C102.429 61.4827 103.514 61.3848 104.257 61.3165C104.628 61.2823 104.914 61.2556 105.106 61.2374L105.392 61.2102C108.14 60.9441 110.585 62.9564 110.851 65.705Z"
                      fill="#DADADA"/>
            </g>
            <defs>
                <filter id="filter0_d_1506_804" x="8.99963" y="40" width="186.869" height="128.723"
                        filterUnits="userSpaceOnUse" color-interpolation-filters="sRGB">
                    <feFlood flood-opacity="0" result="BackgroundImageFix"/>
                    <feColorMatrix in="SourceAlpha" type="matrix" values="0 0 0 0 0 0 0 0 0 0 0 0 0 0 0 0 0 0 127 0"
                                   result="hardAlpha"/>
                    <feOffset dx="4" dy="2"/>
                    <feGaussianBlur stdDeviation="7.5"/>
                    <feComposite in2="hardAlpha" operator="out"/>
                    <feColorMatrix type="matrix" values="0 0 0 0 0.854167 0 0 0 0 0.854167 0 0 0 0 0.854167 0 0 0 1 0"/>
                    <feBlend mode="normal" in2="BackgroundImageFix" result="effect1_dropShadow_1506_804"/>
                    <feBlend mode="normal" in="SourceGraphic" in2="effect1_dropShadow_1506_804" result="shape"/>
                </filter>
            </defs>
        </symbol>
        <symbol id="thunderstorm" viewBox="0 0 200 200">
            <g clip-path="url(#clip0_1506_806)">
                <path d="M90.7748 93.2124H126.993L106.172 123.788L130.516 124.248L79.4191 184.726L91.8 138.617H69.1344L90.7748 93.2124Z"
                      fill="url(#paint0_linear_1506_806)"/>
                <path d="M146.739 125.393H162.641L153.5 138.817L164.188 139.019L141.753 165.572L147.189 145.328H137.24L146.739 125.393Z"
                      fill="url(#paint1_linear_1506_806)"/>
                <path d="M36.6034 138.969H52.5049L43.3637 152.394L54.0522 152.596L31.6174 179.149L37.0535 158.904H27.104L36.6034 138.969Z"
                      fill="url(#paint2_linear_1506_806)"/>
                <g filter="url(#filter0_d_1506_806)">
                    <path d="M146.114 132.585H44.2611C34.3806 132.577 24.886 128.748 17.765 121.898C10.644 115.049 6.44873 105.71 6.0574 95.8372C5.66606 85.9644 9.10903 76.323 15.6655 68.9313C22.222 61.5396 31.3837 56.9707 41.2327 56.1812C42.6372 46.2636 47.1157 37.036 54.038 29.7964C60.9604 22.5569 69.9783 17.6698 79.8231 15.8227C89.6678 13.9756 99.8439 15.2615 108.92 19.4994C117.996 23.7373 125.514 30.714 130.418 39.448C139.413 36.3344 149.131 35.9706 158.333 38.403C167.535 40.8354 175.804 45.9538 182.085 53.1052C188.366 60.2566 192.375 69.1169 193.6 78.556C194.824 87.995 193.21 97.585 188.962 106.103C186.469 113.798 181.602 120.506 175.06 125.263C168.518 130.021 160.637 132.584 152.548 132.585H146.114Z"
                          fill="url(#paint3_linear_1506_806)"/>
                    <path d="M152.548 132.052C156.655 132.052 160.694 131.397 164.551 130.103C168.281 128.852 171.782 127.027 174.959 124.678C178.098 122.356 180.851 119.575 183.139 116.411C185.456 113.208 187.245 109.685 188.456 105.939L188.468 105.9L188.486 105.864C190.097 102.646 191.337 99.2423 192.173 95.7467C193.032 92.1497 193.468 88.4329 193.468 84.6992C193.468 81.4861 193.144 78.2751 192.506 75.1554C191.884 72.1154 190.956 69.125 189.747 66.2675C188.56 63.4618 187.091 60.7556 185.381 58.2241C183.687 55.7166 181.741 53.3586 179.598 51.2156C177.455 49.0727 175.097 47.1271 172.59 45.433C170.058 43.7228 167.352 42.2539 164.547 41.0672C161.689 39.8586 158.699 38.9303 155.659 38.3082C152.539 37.6698 149.328 37.3461 146.115 37.3461C140.794 37.3461 135.572 38.2217 130.593 39.9485L130.173 40.0942L129.955 39.7067C125.903 32.5016 120.009 26.4507 112.91 22.2082C109.32 20.0626 105.463 18.4046 101.446 17.2802C97.3021 16.1202 92.9978 15.5321 88.6526 15.5321C82.8081 15.5321 77.1029 16.5839 71.6956 18.6584C66.4719 20.6625 61.6799 23.5575 57.4527 27.2629C53.2499 30.9469 49.7621 35.2938 47.0862 40.1827C44.3446 45.1917 42.5527 50.5985 41.7602 56.253L41.7009 56.6763L41.2749 56.7096C36.5086 57.0827 31.9228 58.3376 27.645 60.4394C23.4884 62.4817 19.7767 65.2441 16.6129 68.6497C10.1122 75.6475 6.53206 84.7651 6.53206 94.3227C6.53206 99.4164 7.52954 104.357 9.49683 109.009C10.4424 111.244 11.6127 113.4 12.9754 115.417C14.3252 117.415 15.8754 119.294 17.5828 121.002C19.2903 122.709 21.1691 124.259 23.1671 125.609C25.1841 126.972 27.3403 128.142 29.5758 129.088C34.2269 131.055 39.168 132.052 44.2617 132.052H146.115H152.548ZM152.548 132.584H146.115H44.2617C23.1304 132.584 6 115.454 6 94.3227C6 74.2104 21.5173 57.7225 41.2333 56.1792C44.4946 32.9076 64.4821 15 88.6526 15C106.584 15 122.213 24.8554 130.419 39.4459C135.336 37.7404 140.617 36.8141 146.115 36.8141C172.561 36.8141 194 58.2532 194 84.6992C194 92.3924 192.186 99.6613 188.962 106.102C183.994 121.469 169.569 132.584 152.548 132.584Z"
                          fill="white" fill-opacity="0.5"/>
                </g>
            </g>
            <defs>
                <filter id="filter0_d_1506_806" x="-14" y="-13" width="248" height="177.585"
                        filterUnits="userSpaceOnUse" color-interpolation-filters="sRGB">
                    <feFlood flood-opacity="0" result="BackgroundImageFix"/>
                    <feColorMatrix in="SourceAlpha" type="matrix" values="0 0 0 0 0 0 0 0 0 0 0 0 0 0 0 0 0 0 127 0"
                                   result="hardAlpha"/>
                    <feOffset dx="10" dy="2"/>
                    <feGaussianBlur stdDeviation="15"/>
                    <feColorMatrix type="matrix"
                                   values="0 0 0 0 0.501961 0 0 0 0 0.501961 0 0 0 0 0.501961 0 0 0 0.302 0"/>
                    <feBlend mode="normal" in2="BackgroundImageFix" result="effect1_dropShadow_1506_806"/>
                    <feBlend mode="normal" in="SourceGraphic" in2="effect1_dropShadow_1506_806" result="shape"/>
                </filter>
                <linearGradient id="paint0_linear_1506_806" x1="94.1782" y1="138.969" x2="65.5063" y2="128.458"
                                gradientUnits="userSpaceOnUse">
                    <stop stop-color="#FFD100"/>
                    <stop offset="1" stop-color="#FFF0AA"/>
                </linearGradient>
                <linearGradient id="paint1_linear_1506_806" x1="148.235" y1="145.483" x2="135.647" y2="140.868"
                                gradientUnits="userSpaceOnUse">
                    <stop stop-color="#FFD100"/>
                    <stop offset="1" stop-color="#FFF0AA"/>
                </linearGradient>
                <linearGradient id="paint2_linear_1506_806" x1="38.0989" y1="159.059" x2="25.511" y2="154.445"
                                gradientUnits="userSpaceOnUse">
                    <stop stop-color="#FFD100"/>
                    <stop offset="1" stop-color="#FFF0AA"/>
                </linearGradient>
                <linearGradient id="paint3_linear_1506_806" x1="100.013" y1="15.0013" x2="154.624" y2="147.039"
                                gradientUnits="userSpaceOnUse">
                    <stop stop-color="white" stop-opacity="0.604"/>
                    <stop offset="1" stop-color="white" stop-opacity="0.2"/>
                </linearGradient>
                <clipPath id="clip0_1506_806">
                    <rect width="200" height="200" fill="white"/>
                </clipPath>
            </defs>
        </symbol>
        <symbol id="tornado" viewBox="0 0 200 200">
            <g clip-path="url(#clip0_1506_809)">
                <g filter="url(#filter0_d_1506_809)">
                    <path d="M58.5623 113.615C58.5623 109.802 60.8656 106.22 64.9066 103.11C51.2057 97.2905 42.5741 88.8118 42.5741 79.3723C42.5741 61.8237 72.3969 47.5977 109.188 47.5977C145.978 47.5977 175.801 61.8237 175.801 79.3723C175.801 88.905 167.005 97.4545 153.07 103.278C156.977 106.349 159.198 109.87 159.198 113.615C159.198 125.544 136.672 135.209 108.881 135.209C81.0903 135.209 58.5623 125.541 58.5623 113.615Z"
                          fill="url(#paint0_linear_1506_809)"/>
                    <path d="M108.88 134.676C115.641 134.676 122.199 134.108 128.371 132.988C134.323 131.908 139.666 130.362 144.25 128.395C146.501 127.429 148.543 126.367 150.319 125.239C152.102 124.106 153.632 122.897 154.865 121.646C157.387 119.087 158.666 116.385 158.666 113.615C158.666 111.877 158.153 110.145 157.143 108.468C156.147 106.815 154.666 105.209 152.741 103.697L152.028 103.137L152.865 102.787C156.318 101.344 159.464 99.7254 162.215 97.977C164.977 96.2211 167.354 94.326 169.279 92.3446C171.227 90.3391 172.723 88.2328 173.726 86.0844C174.75 83.8923 175.269 81.634 175.269 79.3722C175.269 77.2889 174.828 75.2051 173.958 73.1785C173.106 71.1908 171.83 69.2323 170.168 67.3574C168.525 65.5053 166.49 63.7168 164.117 62.0418C161.759 60.3766 159.048 58.8098 156.061 57.3849C153.068 55.9572 149.773 54.6606 146.269 53.5311C142.726 52.3897 138.939 51.4091 135.011 50.6167C126.833 48.9668 118.145 48.1302 109.188 48.1302C100.23 48.1302 91.5418 48.9668 83.3639 50.6167C79.4363 51.4091 75.6489 52.3897 72.1067 53.5311C68.6018 54.6606 65.3071 55.9572 62.314 57.3849C59.3267 58.8098 56.6162 60.3766 54.2578 62.0418C51.8854 63.7168 49.8497 65.5053 48.2074 67.3574C46.5449 69.2323 45.2696 71.1908 44.4169 73.1785C43.5475 75.2051 43.1066 77.2889 43.1066 79.3722C43.1066 81.6122 43.6159 83.8494 44.6202 86.0217C45.6045 88.1507 47.0735 90.2394 48.9863 92.2297C50.876 94.1959 53.2106 96.0787 55.925 97.8257C58.6272 99.5648 61.719 101.178 65.1145 102.62L65.9535 102.977L65.231 103.532C63.2389 105.065 61.7053 106.695 60.6727 108.377C59.6257 110.083 59.0948 111.845 59.0948 113.615C59.0948 116.385 60.3736 119.087 62.8958 121.646C64.1286 122.897 65.658 124.106 67.4413 125.239C69.2174 126.367 71.2592 127.429 73.5101 128.395C78.0944 130.362 83.437 131.908 89.3894 132.988C95.5616 134.108 102.119 134.676 108.88 134.676ZM108.88 135.209C81.0905 135.209 58.5622 125.541 58.5622 113.615C58.5622 109.802 60.8653 106.219 64.9063 103.11C51.2054 97.2906 42.5741 88.8117 42.5741 79.3722C42.5741 61.8236 72.3979 47.5977 109.188 47.5977C145.977 47.5977 175.801 61.8236 175.801 79.3722C175.801 88.9038 167.004 97.4544 153.07 103.278C156.977 106.348 159.198 109.87 159.198 113.615C159.198 125.541 136.67 135.209 108.88 135.209Z"
                          fill="white" fill-opacity="0.5"/>
                </g>
                <path fill-rule="evenodd" clip-rule="evenodd"
                      d="M32.1301 79.7669C32.1301 74.1651 37.2794 67.4971 49.3615 61.9388C61.0132 56.5784 77.4613 53.1302 95.8979 53.1302C114.334 53.1302 130.783 56.5784 142.434 61.9388C154.516 67.4971 159.666 74.1651 159.666 79.7669C159.666 85.3688 154.516 92.0367 142.434 97.5951C130.783 102.956 114.334 106.404 95.8979 106.404C77.4613 106.404 61.0132 102.956 49.3615 97.5951C37.2794 92.0367 32.1301 85.3688 32.1301 79.7669ZM95.8979 43.1302C76.355 43.1302 58.4193 46.7642 45.182 52.854C32.375 58.7459 22.1301 67.8963 22.1301 79.7669C22.1301 90.5038 30.5115 99.0152 41.5892 104.903C40.8975 105.897 40.2439 106.96 39.6536 108.063C37.9372 111.272 36.5 115.303 36.5 119.5C36.5 121.575 37.061 124.594 39.5807 127.679C42.0173 130.662 45.9861 133.34 52.1053 135.472C53.5479 135.974 55.1301 136.453 56.866 136.902C56.3291 138.357 56 140.049 56 142C56 145.653 57.963 148.746 60.6285 151.012C63.2923 153.277 66.9605 155.018 71.3944 156.205C80.2794 158.584 93.1987 158.999 110.382 155.922C113.1 155.435 114.909 152.837 114.422 150.119C113.935 147.4 111.337 145.591 108.618 146.078C92.3013 149.001 80.9706 148.416 73.9805 146.545C70.4769 145.607 68.3015 144.41 67.1059 143.394C66.1424 142.575 66.0138 142.07 66 141.987C66.0033 140.189 66.6699 139.549 67.0412 139.245C67.1811 139.13 67.3231 139.035 67.4629 138.953C80.5502 140.796 99.3296 141.345 126.343 139.488C129.098 139.299 131.178 136.912 130.988 134.157C130.799 131.402 128.412 129.322 125.657 129.512C85.8189 132.251 65.5304 129.559 55.3947 126.028C50.3889 124.285 48.2327 122.463 47.3255 121.353C46.5015 120.344 46.5 119.675 46.5 119.5C46.5 117.487 47.2295 115.102 48.4715 112.78C49.2688 111.289 50.172 110.021 50.982 109.08C63.4498 113.712 79.0787 116.404 95.8979 116.404C115.441 116.404 133.376 112.77 146.614 106.68C159.421 100.788 169.666 91.6376 169.666 79.7669C169.666 67.8963 159.421 58.7459 146.614 52.854C133.376 46.7642 115.441 43.1302 95.8979 43.1302Z"
                      fill="#B2B2B2"/>
                <path fill-rule="evenodd" clip-rule="evenodd"
                      d="M47.4559 141.597C48.0417 142.183 48.0417 143.133 47.4559 143.719L44.7825 146.392C44.1967 146.978 43.2469 146.978 42.6611 146.392C42.0754 145.806 42.0754 144.856 42.6611 144.271L45.3345 141.597C45.9203 141.012 46.8701 141.012 47.4559 141.597Z"
                      fill="#FFD100"/>
                <path fill-rule="evenodd" clip-rule="evenodd"
                      d="M42.6611 141.597C43.2469 141.012 44.1967 141.012 44.7825 141.597L47.4559 144.271C48.0417 144.856 48.0417 145.806 47.4559 146.392C46.8701 146.978 45.9203 146.978 45.3345 146.392L42.6611 143.719C42.0754 143.133 42.0754 142.183 42.6611 141.597Z"
                      fill="#FFD100"/>
                <path fill-rule="evenodd" clip-rule="evenodd"
                      d="M43.728 48.4009C44.3137 48.9867 44.3137 49.9365 43.728 50.5222L41.0546 53.1956C40.4688 53.7814 39.519 53.7814 38.9332 53.1956C38.3474 52.6099 38.3474 51.6601 38.9332 51.0743L41.6066 48.4009C42.1924 47.8151 43.1422 47.8151 43.728 48.4009Z"
                      fill="#FFD100"/>
                <path fill-rule="evenodd" clip-rule="evenodd"
                      d="M38.9332 48.4009C39.519 47.8151 40.4688 47.8151 41.0546 48.4009L43.728 51.0743C44.3137 51.6601 44.3137 52.6099 43.728 53.1956C43.1422 53.7814 42.1924 53.7814 41.6066 53.1956L38.9332 50.5222C38.3474 49.9365 38.3474 48.9867 38.9332 48.4009Z"
                      fill="#FFD100"/>
                <path fill-rule="evenodd" clip-rule="evenodd"
                      d="M157.694 130.414C158.28 131 158.28 131.949 157.694 132.535L155.02 135.208C154.435 135.794 153.485 135.794 152.899 135.208C152.313 134.623 152.313 133.673 152.899 133.087L155.573 130.414C156.158 129.828 157.108 129.828 157.694 130.414Z"
                      fill="#FFD100"/>
                <path fill-rule="evenodd" clip-rule="evenodd"
                      d="M152.899 130.414C153.485 129.828 154.435 129.828 155.02 130.414L157.694 133.087C158.28 133.673 158.28 134.623 157.694 135.208C157.108 135.794 156.158 135.794 155.573 135.208L152.899 132.535C152.313 131.949 152.313 131 152.899 130.414Z"
                      fill="#FFD100"/>
                <path fill-rule="evenodd" clip-rule="evenodd"
                      d="M172.073 97.3956C172.658 97.9814 172.658 98.9311 172.073 99.5169L169.399 102.19C168.813 102.776 167.864 102.776 167.278 102.19C166.692 101.605 166.692 100.655 167.278 100.069L169.951 97.3956C170.537 96.8098 171.487 96.8098 172.073 97.3956Z"
                      fill="#FFD100"/>
                <path fill-rule="evenodd" clip-rule="evenodd"
                      d="M167.278 97.3956C167.864 96.8098 168.813 96.8098 169.399 97.3956L172.073 100.069C172.658 100.655 172.658 101.605 172.073 102.19C171.487 102.776 170.537 102.776 169.951 102.19L167.278 99.5169C166.692 98.9311 166.692 97.9814 167.278 97.3956Z"
                      fill="#FFD100"/>
            </g>
            <defs>
                <filter id="filter0_d_1506_809" x="22.5741" y="19.5977" width="193.227" height="147.612"
                        filterUnits="userSpaceOnUse" color-interpolation-filters="sRGB">
                    <feFlood flood-opacity="0" result="BackgroundImageFix"/>
                    <feColorMatrix in="SourceAlpha" type="matrix" values="0 0 0 0 0 0 0 0 0 0 0 0 0 0 0 0 0 0 127 0"
                                   result="hardAlpha"/>
                    <feOffset dx="10" dy="2"/>
                    <feGaussianBlur stdDeviation="15"/>
                    <feColorMatrix type="matrix"
                                   values="0 0 0 0 0.501961 0 0 0 0 0.501961 0 0 0 0 0.501961 0 0 0 0.302 0"/>
                    <feBlend mode="normal" in2="BackgroundImageFix" result="effect1_dropShadow_1506_809"/>
                    <feBlend mode="normal" in="SourceGraphic" in2="effect1_dropShadow_1506_809" result="shape"/>
                </filter>
                <linearGradient id="paint0_linear_1506_809" x1="96.5311" y1="58.6367" x2="125.864" y2="138.946"
                                gradientUnits="userSpaceOnUse">
                    <stop stop-color="white" stop-opacity="0.596"/>
                    <stop offset="1" stop-color="#F7F7F7" stop-opacity="0.204"/>
                </linearGradient>
                <clipPath id="clip0_1506_809">
                    <rect width="200" height="200" fill="white"/>
                </clipPath>
            </defs>
        </symbol>
    </defs>
</svg>